<?xml version="1.0" encoding="UTF-8" standalone="no"?>
<svg width="29px" height="29px" viewBox="0 0 29 29" version="1.1" xmlns="http://www.w3.org/2000/svg" xmlns:xlink="http://www.w3.org/1999/xlink" xmlns:sketch="http://www.bohemiancoding.com/sketch/ns">
    <!-- Generator: Sketch 3.5.2 (25235) - http://www.bohemiancoding.com/sketch -->
    <title>building120 + Oval 51</title>
    <desc>Created with Sketch.</desc>
    <defs></defs>
    <g id="Page-1" stroke="none" stroke-width="1" fill="none" fill-rule="evenodd" sketch:type="MSPage">
        <g id="Экран-1.2" sketch:type="MSArtboardGroup" transform="translate(-8.000000, -630.000000)" fill="#0176FE">
            <g id="building120-+-Oval-51" sketch:type="MSLayerGroup" transform="translate(8.000000, 630.000000)">
                <g id="building120" sketch:type="MSShapeGroup">
                    <path d="M28.5356838,11.6993909 L15.2911921,0.302259091 C15.065064,0.107036364 14.7733863,0 14.470564,0 C14.1677416,0 13.876064,0.107036364 13.6499359,0.302259091 L0.404964784,11.6993909 C-0.114159183,12.1457273 -0.00367157968,12.6616636 0.0425846187,12.8095636 C0.0884813129,12.9568045 0.290762305,13.4376773 0.949853214,13.4376773 L3.58621685,13.4376773 L3.58621685,27.4763136 C3.58621685,28.2034227 4.12403503,28.7944955 4.78456396,28.7944955 L10.9874483,28.7944955 C11.6478573,28.7944955 12.1857954,28.2034227 12.1857954,27.4763136 L12.1857954,21.1938591 L16.7553326,21.1938591 L16.7553326,27.4763136 C16.7553326,28.2034227 17.2927912,28.7944955 17.9536797,28.7944955 L24.1560846,28.7944955 C24.8170929,28.7944955 25.3544317,28.2034227 25.3544317,27.4763136 L25.3544317,13.4376773 L27.9907954,13.4376773 C28.6503656,13.4376773 28.8521673,12.9568045 28.8984235,12.8095636 C28.9447995,12.6616636 29.0552871,12.1457273 28.5356838,11.6993909 L28.5356838,11.6993909 Z M25.3737644,12.1767252 C24.7132354,12.1767252 24.2547386,12.4474595 24.2547386,13.1740414 L24.2547383,27.7489549 L17.9990744,27.7489549 L17.9990744,20.930222 C17.9990744,20.2031129 17.3627448,20.0210531 16.7017365,20.0210531 L12.017071,20.0210531 C11.3560627,20.0210531 11.1136258,20.2031129 11.1136258,20.930222 L11.1136258,27.7489549 L4.92765995,27.7489549 L4.67472001,13.1740414 C4.67472001,12.4474595 4.31458935,12.1767252 3.65370092,12.1767252 L1.92006488,11.8558596 L14.4705639,1.23563183 L27.0449878,11.8558596 L25.3737644,12.1767252 Z" id="Fill-1"></path>
                </g>
            </g>
        </g>
    </g>
</svg>