<?xml version="1.0" encoding="UTF-8" standalone="no"?>
<svg width="78px" height="78px" viewBox="0 0 78 78" version="1.1" xmlns="http://www.w3.org/2000/svg" xmlns:xlink="http://www.w3.org/1999/xlink" xmlns:sketch="http://www.bohemiancoding.com/sketch/ns">
    <!-- Generator: Sketch 3.5.2 (25235) - http://www.bohemiancoding.com/sketch -->
    <title>Oval 72 + Bottom Bar/Toolbar</title>
    <desc>Created with Sketch.</desc>
    <defs></defs>
    <g id="Page-1" stroke="none" stroke-width="1" fill="none" fill-rule="evenodd" sketch:type="MSPage">
        <g id="Экран-1.0(0)" sketch:type="MSArtboardGroup" transform="translate(-148.000000, -294.000000)">
            <rect id="Rectangle-467" fill="#FFFFFF" sketch:type="MSShapeGroup" x="0" y="0" width="375" height="667"></rect>
            <rect id="Rectangle-636" fill="#FFFFFF" sketch:type="MSShapeGroup" x="0" y="65" width="375" height="602"></rect>
            <g id="Oval-72-+-Bottom-Bar/Toolbar" sketch:type="MSLayerGroup" transform="translate(148.000000, 294.000000)">
                <circle id="Oval-72" fill="#F2F2F2" sketch:type="MSShapeGroup" cx="39" cy="39" r="39"></circle>
                <g id="Bottom-Bar/Toolbar" transform="translate(22.578947, 15.736842)" fill="#0176FE" sketch:type="MSShapeGroup">
                    <path d="M0,8.09039724 L25.5777138,8.09039723 L23.8725329,9.80092355 L1.70518092,9.80092355 L1.70518092,38.8798709 L30.6932566,38.8798709 L30.6932566,16.6430288 L32.3984375,14.9325025 L32.3984375,40.5903972 L0,40.5903972 L0,8.09039724 Z M31.7118102,3.62115688 L15.4273671,19.9564026 L12.8561393,27.6941506 L19.7127469,25.974651 L36.8542659,8.77965554 L35.140114,7.06015598 L18.8556709,23.3954017 L16.2844431,24.2551515 L17.141519,21.6759022 L33.4259621,5.34065643 L31.7118102,3.62115688 Z M32.5688861,2.76140711 L37.7113419,7.91990576 L39.2219081,6.40462697 C39.8076953,5.81701227 39.8079974,4.86460358 39.2170496,4.27181218 L36.2056341,1.25100203 C35.6171636,0.660695652 34.6685112,0.655231859 34.0794524,1.24612832 L32.5688861,2.76140711 Z" id="Edit-Button"></path>
                </g>
            </g>
        </g>
    </g>
</svg>