<?xml version="1.0" encoding="UTF-8" standalone="no"?>
<svg width="52px" height="47px" viewBox="0 0 52 47" version="1.1" xmlns="http://www.w3.org/2000/svg" xmlns:xlink="http://www.w3.org/1999/xlink" xmlns:sketch="http://www.bohemiancoding.com/sketch/ns">
    <!-- Generator: Sketch 3.5.2 (25235) - http://www.bohemiancoding.com/sketch -->
    <title>bathing1</title>
    <desc>Created with Sketch.</desc>
    <defs></defs>
    <g id="Page-1" stroke="none" stroke-width="1" fill="none" fill-rule="evenodd" sketch:type="MSPage">
        <g id="w" sketch:type="MSArtboardGroup" transform="translate(-16.000000, -271.000000)" fill="#4990E2">
            <g id="bathing1" sketch:type="MSLayerGroup" transform="translate(16.000000, 271.000000)">
                <g id="Capa_1" sketch:type="MSShapeGroup">
                    <path d="M31.8932512,46.8185077 L25.9073365,46.8185077 C13.3344265,46.8185077 3.09609479,36.8542667 3.01378199,24.5764205 C0.84185782,22.6783436 -0.217611374,20.5459897 0.0372132701,18.4403897 C0.320872038,16.0944872 2.30278673,14.1778513 5.20936493,13.4388667 C8.65713744,12.5627385 10.9204929,14.2325641 13.7871469,16.3473231 C16.111128,18.0614974 19.0031659,20.1950564 23.4128152,21.4941846 C28.4131943,22.9670923 34.1514313,23.189559 39.2141611,23.3857538 C44.0403033,23.5727897 47.8523223,23.7205385 49.7790332,24.8940923 C51.3032986,25.8225231 52.0751659,27.2354154 51.8437536,28.6740974 C51.6298389,30.0060051 50.6038863,31.1682308 48.9904076,31.9795231 C47.9664265,40.4559128 40.6570995,46.8185077 31.8932512,46.8185077 L31.8932512,46.8185077 Z M4.28420853,25.6969487 C4.95675829,36.7906359 14.3983318,45.6133795 25.9073365,45.6133795 L31.8932512,45.6133795 C39.7464834,45.6133795 46.3416114,40.1102821 47.6462938,32.6522256 C47.3712607,32.7452615 47.0824265,32.8286564 46.7812701,32.9024103 C41.5635261,34.1779179 29.2212891,32.9691744 28.6985782,32.9173538 C28.1677346,32.8705949 15.4294597,31.7040308 6.60301422,27.1002 C5.76017062,26.6605692 4.98411374,26.1908103 4.28420853,25.6969487 L4.28420853,25.6969487 Z M6.99215166,14.4126103 C6.5243981,14.4126103 6.03717536,14.4735897 5.51939336,14.6051897 C3.07909005,15.2258308 1.48705213,16.7124769 1.26081517,18.5821128 C0.954483412,21.1155333 3.11285308,23.7858564 7.18290047,25.9088103 C15.7907488,30.3988769 28.6869953,31.5782154 28.8161327,31.5897846 C28.9489668,31.603041 41.4730806,32.8298615 46.4823318,31.6052103 C48.8568341,31.0245795 50.4059905,29.8587385 50.6265592,28.4868205 C50.7805877,27.5277795 50.234218,26.5911538 49.1276777,25.9170051 C47.4777251,24.9121692 43.6255355,24.7627333 39.1651185,24.5899179 C34.0291943,24.3908308 28.2076588,24.1652308 23.0574408,22.6479744 C18.4368341,21.2869026 15.4472038,19.0815179 13.0450995,17.3094974 C10.8298009,15.6751026 9.11799052,14.4126103 6.99215166,14.4126103 L6.99215166,14.4126103 Z M13.2092322,38.2341385 C13.0761517,38.2341385 12.9418389,38.1922 12.8289668,38.1054308 C9.23135545,35.3408667 8.44396209,30.8488718 8.41217062,30.6589436 C8.35696682,30.3304256 8.58468246,30.0207077 8.92058768,29.966959 C9.25673934,29.9122462 9.57268246,30.1356769 9.62788626,30.4637128 L9.62788626,30.4637128 C9.63503318,30.5056513 10.3778199,34.6896154 13.590237,37.157959 C13.8576303,37.3635538 13.9039621,37.7424462 13.6939905,38.003959 C13.5727393,38.1553231 13.3920948,38.2341385 13.2092322,38.2341385 L13.2092322,38.2341385 Z M36.3563791,21.9212821 C34.4548057,21.9212821 32.7876019,20.5517744 32.508872,18.6582769 C32.3607583,17.6524769 32.622237,16.6505333 33.2447583,15.8370718 C33.8672796,15.0236103 34.7766635,14.4960051 35.805327,14.3511487 C37.9252512,14.052759 39.9034692,15.4984308 40.2090616,17.5748667 C40.3571754,18.5806667 40.0956967,19.5826103 39.4731754,20.3960718 C38.850654,21.2095333 37.9412701,21.7373795 36.9126066,21.8819949 C36.7258009,21.9085077 36.539981,21.9212821 36.3563791,21.9212821 L36.3563791,21.9212821 Z M35.9805498,15.5442256 C35.2779336,15.6430462 34.656891,16.0036205 34.2312796,16.5591846 C33.8059147,17.1149897 33.6274882,17.7995026 33.7285308,18.4866667 C33.9375166,19.9053436 35.2892701,20.8940308 36.7373839,20.689159 C37.44,20.5903385 38.0610427,20.2297641 38.486654,19.673959 C38.912019,19.1181538 39.0904455,18.433641 38.9894028,17.7464769 C38.7806635,16.3282821 37.4328531,15.340559 35.9805498,15.5442256 L35.9805498,15.5442256 L35.9805498,15.5442256 Z M25.2927014,17.785041 C24.2741422,17.785041 23.287128,17.4656821 22.4570995,16.8580564 C21.4417441,16.1147333 20.7829953,15.0291538 20.6025972,13.8013692 C20.2297251,11.2667436 22.0351848,8.90806667 24.6265592,8.54339487 L24.6268057,8.54339487 C25.8807204,8.36720513 27.1326635,8.67885128 28.1482654,9.42217436 C29.1636209,10.1654974 29.8223697,11.2510769 30.0027678,12.4788615 C30.3756398,15.0134872 28.5701801,17.3721641 25.9788057,17.7368359 C25.7493649,17.7691333 25.5204171,17.785041 25.2927014,17.785041 L25.2927014,17.785041 Z M24.8020284,9.73623077 C22.8827109,10.0061795 21.5459905,11.7528923 21.8220095,13.629759 C21.9555829,14.5389077 22.4432986,15.3427282 23.1954502,15.8932308 C23.947109,16.4437333 24.8725118,16.6746359 25.80309,16.544 C27.7221611,16.2738103 29.0588815,14.5273385 28.7828626,12.6504718 C28.6492891,11.7413231 28.1615735,10.9375026 27.4094218,10.387 C26.6580095,9.83649744 25.7318673,9.60535385 24.8020284,9.73623077 L24.8020284,9.73623077 L24.8020284,9.73623077 Z M34.6061232,7.2192 C32.8189005,7.2192 31.2522464,5.9323641 30.9902749,4.15287179 C30.8512796,3.20781026 31.0969858,2.26612308 31.6820474,1.50158974 C32.267109,0.73705641 33.121782,0.241266667 34.0883412,0.105328205 L34.0880948,0.105328205 C35.0551469,-0.0303692308 36.0172701,0.209692308 36.7989953,0.781887179 C37.5807204,1.35408205 38.0876588,2.18971795 38.2269005,3.13502051 C38.513763,5.08612308 37.1240569,6.90201026 35.1290806,7.1825641 C34.9533649,7.20714872 34.7786351,7.2192 34.6061232,7.2192 L34.6061232,7.2192 Z M34.2633175,1.2981641 C33.6225592,1.38830769 33.0564739,1.71706667 32.6683223,2.22370256 C32.2806635,2.73057949 32.117763,3.35459487 32.2099336,3.98126154 C32.4001896,5.27484615 33.6334028,6.1758 34.9536114,5.98972821 C36.2760379,5.80365641 37.1972512,4.59997436 37.0069953,3.30663077 C36.9148246,2.6799641 36.5789194,2.12608718 36.0603981,1.74671282 C35.5423697,1.36733846 34.9050616,1.20777949 34.2633175,1.2981641 L34.2633175,1.2981641 L34.2633175,1.2981641 Z" id="Shape"></path>
                </g>
            </g>
        </g>
    </g>
</svg>