<?xml version="1.0" encoding="UTF-8" standalone="no"?>
<svg width="39px" height="43px" viewBox="0 0 39 43" version="1.1" xmlns="http://www.w3.org/2000/svg" xmlns:xlink="http://www.w3.org/1999/xlink" xmlns:sketch="http://www.bohemiancoding.com/sketch/ns">
    <!-- Generator: Sketch 3.5.2 (25235) - http://www.bohemiancoding.com/sketch -->
    <title>Group 2</title>
    <desc>Created with Sketch.</desc>
    <defs>
        <path id="path-1" d="M7,6 L45.966087,6 L45.966087,44.4428571 L7,44.4428571 L7,6 Z"></path>
    </defs>
    <g id="Page-1" stroke="none" stroke-width="1" fill="none" fill-rule="evenodd" sketch:type="MSPage">
        <g id="Экран-1.2" sketch:type="MSArtboardGroup" transform="translate(-16.000000, -139.000000)">
            <g id="clock104" sketch:type="MSLayerGroup" transform="translate(16.000000, 139.000000)">
                <g id="Group">
                    <g id="Group-3">
                        <g id="Group-2">
                            <path d="M37.2184348,15.9100429 C35.1757391,11.2133286 31.7030435,7.79637143 26.8964348,5.77672857 C24.4965217,4.76718571 21.9796087,4.25127143 19.351913,4.25127143 C16.7225217,4.25127143 14.2253913,4.76272857 11.8277391,5.77672857 C7.06295652,7.79247143 3.57443478,11.2049714 1.52552174,15.9100429 C0.501347826,18.2667571 0,20.7349 0,23.3267286 C0,25.9168857 0.501347826,28.4067571 1.52552174,30.7634714 C3.57443478,35.4685429 7.06295652,38.9033286 11.8277391,40.9185143 C14.2253913,41.9325143 16.7225217,42.4417429 19.351913,42.4417429 C21.9796087,42.4417429 24.4965217,41.9280571 26.8964348,40.9185143 C31.7007826,38.8988714 35.1734783,35.4601857 37.2184348,30.7634714 C38.2471304,28.4000714 38.766,25.9168857 38.766,23.3267286 C38.766,20.7349 38.2493913,18.2734429 37.2184348,15.9100429 L37.2184348,15.9100429 Z M34.125,31.7668857 C32.604,34.3392143 30.5194783,36.3805857 27.8923478,37.8887714 C25.2844348,39.3886 22.4255652,40.1457571 19.351913,40.1457571 C17.0424348,40.1457571 14.8369565,39.7061714 12.7394348,38.8075 C10.6396522,37.9082714 8.82926087,36.7288 7.31278261,35.2356571 C5.798,33.7408429 4.59013043,31.9390429 3.68917391,29.8648 C2.78878261,27.8017 2.35356522,25.6032143 2.35356522,23.3267286 C2.35356522,20.2975429 3.10869565,17.4923286 4.62121739,14.9283571 C6.13995652,12.3538 8.22447826,10.3102 10.8318261,8.80647143 C13.436913,7.30274286 16.2788261,6.54948571 19.351913,6.54948571 C22.4255652,6.54948571 25.2821739,7.3072 27.8923478,8.80647143 C30.5172174,10.3146571 32.5972174,12.3582571 34.125,14.9283571 C35.6505217,17.4967857 36.4124348,20.2975429 36.4124348,23.3267286 C36.4124348,26.3564714 35.6550435,29.1789571 34.125,31.7668857 L34.125,31.7668857 Z" id="Fill-1" fill="#858585" sketch:type="MSShapeGroup"></path>
                            <path d="M11,12.3119926 L11,0" id="Path-282" stroke="#858585" stroke-width="2" fill="#858585" sketch:type="MSShapeGroup"></path>
                            <text id="31" sketch:type="MSTextLayer" font-family=".AppleSystemUIFont" font-size="15" font-weight="normal" sketch:alignment="right" letter-spacing="-0.363539904" fill="#858585">
                                <tspan x="11.7427048" y="29">31</tspan>
                            </text>
                            <path d="M26,12.3119926 L26,0" id="Path-282" stroke="#858585" stroke-width="2" fill="#858585" sketch:type="MSShapeGroup"></path>
                            <mask id="mask-2" sketch:name="Clip 2" fill="white">
                                <use xlink:href="#path-1"></use>
                            </mask>
                            <g id="Clip-2"></g>
                        </g>
                    </g>
                </g>
            </g>
        </g>
    </g>
</svg>