<?xml version="1.0" encoding="UTF-8" standalone="no"?>
<svg width="22px" height="19px" viewBox="0 0 22 19" version="1.1" xmlns="http://www.w3.org/2000/svg" xmlns:xlink="http://www.w3.org/1999/xlink" xmlns:sketch="http://www.bohemiancoding.com/sketch/ns">
    <!-- Generator: Sketch 3.5.2 (25235) - http://www.bohemiancoding.com/sketch -->
    <title>Capa_1</title>
    <desc>Created with Sketch.</desc>
    <defs></defs>
    <g id="Page-1" stroke="none" stroke-width="1" fill="none" fill-rule="evenodd" sketch:type="MSPage">
        <g id="01" sketch:type="MSArtboardGroup" transform="translate(-19.000000, -522.000000)" stroke="#FFFFFF">
            <g id="sound" sketch:type="MSLayerGroup" transform="translate(20.000000, 523.000000)">
                <g id="Capa_1" sketch:type="MSShapeGroup">
                    <path d="M16.9696281,14.5537109 C16.7389137,14.5537109 16.5082714,14.4648522 16.3321524,14.2872441 C15.9800947,13.9318094 15.9800947,13.3556296 16.3321524,13.0002313 C18.7926256,10.5163747 18.7926256,6.47488865 16.3321524,3.99103212 C15.9800947,3.63559743 15.9800947,3.05938116 16.3321524,2.70401927 C16.6842101,2.34865739 17.2550823,2.34862099 17.6070678,2.70401927 C19.1395267,4.25094647 19.9834843,6.30776445 19.9834843,8.49552248 C19.9834843,10.6833169 19.1395267,12.7402077 17.6070678,14.2872077 C17.431057,14.4648158 17.2003426,14.5537109 16.9696281,14.5537109 L16.9696281,14.5537109 Z M13.7672121,12.837621 C13.5364976,12.837621 13.3058192,12.7488351 13.1297363,12.5711178 C12.7776426,12.2156831 12.7776426,11.6395396 13.1297363,11.2841413 C14.6528916,9.74656959 14.6528916,7.24465739 13.1297363,5.70704925 C12.7776426,5.35161456 12.7776426,4.77539829 13.1297363,4.4200364 C13.4818301,4.06467452 14.0525941,4.06467452 14.4046518,4.4200364 C16.6307685,6.66734904 16.6307685,10.3239507 14.4046518,12.5711906 C14.228641,12.7488351 13.9979626,12.837621 13.7672121,12.837621 L13.7672121,12.837621 Z M9.67276566,0.279680942 C10.2909367,-0.206985011 10.7967005,-0.0420085653 10.7967005,0.646218415 L10.7967005,16.3447901 C10.7967005,17.0330535 10.2909367,17.1979936 9.67276566,16.7113276 L3.860783,12.135743 L0.00753662384,12.135743 L0.00753662384,4.85526552 L3.860783,4.85526552 L9.67276566,0.279680942 L9.67276566,0.279680942 Z" id="Shape"></path>
                </g>
            </g>
        </g>
    </g>
</svg>