<?xml version="1.0" encoding="UTF-8" standalone="no"?>
<svg width="46px" height="42px" viewBox="0 0 46 42" version="1.1" xmlns="http://www.w3.org/2000/svg" xmlns:xlink="http://www.w3.org/1999/xlink" xmlns:sketch="http://www.bohemiancoding.com/sketch/ns">
    <!-- Generator: Sketch 3.5.2 (25235) - http://www.bohemiancoding.com/sketch -->
    <title>diapers3</title>
    <desc>Created with Sketch.</desc>
    <defs></defs>
    <g id="Page-1" stroke="none" stroke-width="1" fill="none" fill-rule="evenodd" sketch:type="MSPage">
        <g id="t" sketch:type="MSArtboardGroup" transform="translate(-16.000000, -208.000000)">
            <g id="diapers3" sketch:type="MSLayerGroup" transform="translate(16.000000, 208.000000)">
                <g id="Capa_1" sketch:type="MSShapeGroup">
                    <path d="M29.1885654,41.9526 L16.617801,41.9526 C7.45464921,41.9526 0,32.6667 0,21.2526 L0,0.8562 C0,0.4419 0.269497382,0.1062 0.602094241,0.1062 L45.2042723,0.1062 C45.5368691,0.1062 45.8063665,0.4419 45.8063665,0.8562 L45.8063665,21.2526 C45.8063665,32.6667 38.3517173,41.9526 29.1885654,41.9526 L29.1885654,41.9526 Z M1.20418848,1.6062 L1.20418848,21.2526 C1.20418848,31.8396 8.11863874,40.4526 16.617801,40.4526 L29.1885654,40.4526 C37.6877277,40.4526 44.602178,31.8396 44.602178,21.2526 L44.602178,1.6062 L1.20418848,1.6062 L1.20418848,1.6062 Z" id="Shape" fill="#FF9898"></path>
                    <path d="M16.0318429,41.9526 C15.6992461,41.9526 15.4297487,41.6169 15.4297487,41.2026 L15.4297487,35.7477 C15.4297487,27.318 10.6522513,20.46 4.77966492,20.46 L0.602094241,20.46 C0.269497382,20.46 0,20.1243 0,19.71 C0,19.2957 0.269497382,18.96 0.602094241,18.96 L4.77990576,18.96 C11.3164817,18.96 16.634178,26.4909 16.634178,35.7477 L16.634178,41.2026 C16.6339372,41.6169 16.3644398,41.9526 16.0318429,41.9526 L16.0318429,41.9526 Z" id="Shape" fill="#FF9898"></path>
                    <path d="M29.3523351,41.9472 C29.0197382,41.9472 28.7502408,41.6115 28.7502408,41.1972 L28.7502408,35.2428 C28.7502408,25.986 34.2579581,18.4551 41.0279058,18.4551 L44.9993194,18.4551 C45.3319162,18.4551 45.6014136,18.7908 45.6014136,19.2051 C45.6014136,19.6194 45.3319162,19.9551 44.9993194,19.9551 L41.0279058,19.9551 C34.9217068,19.9551 29.9544293,26.8131 29.9544293,35.2428 L29.9544293,41.1972 C29.9544293,41.6115 29.6849319,41.9472 29.3523351,41.9472 L29.3523351,41.9472 Z" id="Shape" fill="#FF9898"></path>
                    <path d="M45.2042723,13.3464 L36.0160733,13.3464 C34.7073613,13.3464 33.6428586,12.0201 33.6428586,10.3899 L33.6428586,7.6923 C33.6428586,6.0621 34.7076021,4.7361 36.0160733,4.7361 L45.2042723,4.7361 C45.5368691,4.7361 45.8063665,5.0718 45.8063665,5.4861 L45.8063665,12.5964 C45.8063665,13.0107 45.5368691,13.3464 45.2042723,13.3464 L45.2042723,13.3464 Z" id="Shape" fill="#E49393"></path>
                    <path d="M36.0160733,6.2361 C35.3713508,6.2361 34.8470471,6.8895 34.8470471,7.6923 L34.8470471,10.3899 C34.8470471,11.193 35.3715916,11.8464 36.0160733,11.8464 L44.602178,11.8464 L44.602178,6.2361 L36.0160733,6.2361 L36.0160733,6.2361 Z" id="Path" fill="#FFFFFF"></path>
                    <path d="M9.79053403,13.3464 L0.602094241,13.3464 C0.269497382,13.3464 0,13.0107 0,12.5964 L0,5.4861 C0,5.0718 0.269497382,4.7361 0.602094241,4.7361 L9.79053403,4.7361 C11.0992461,4.7361 12.1637487,6.0624 12.1637487,7.6923 L12.1637487,10.3899 C12.1639895,12.0201 11.0992461,13.3464 9.79053403,13.3464 L9.79053403,13.3464 Z" id="Shape" fill="#E49393"></path>
                    <path d="M1.20418848,11.8464 L9.79053403,11.8464 C10.4352565,11.8464 10.9595602,11.193 10.9595602,10.3899 L10.9595602,7.6923 C10.9595602,6.8892 10.4350157,6.2361 9.79053403,6.2361 L1.20418848,6.2361 L1.20418848,11.8464 L1.20418848,11.8464 Z" id="Path" fill="#FFFFFF"></path>
                </g>
            </g>
        </g>
    </g>
</svg>