<?xml version="1.0" encoding="UTF-8" standalone="no"?>
<svg width="54px" height="49px" viewBox="0 0 54 49" version="1.1" xmlns="http://www.w3.org/2000/svg" xmlns:xlink="http://www.w3.org/1999/xlink" xmlns:sketch="http://www.bohemiancoding.com/sketch/ns">
    <!-- Generator: Sketch 3.5.2 (25235) - http://www.bohemiancoding.com/sketch -->
    <title>medical92</title>
    <desc>Created with Sketch.</desc>
    <defs></defs>
    <g id="Page-1" stroke="none" stroke-width="1" fill="none" fill-rule="evenodd" sketch:type="MSPage">
        <g id="e" sketch:type="MSArtboardGroup" transform="translate(-14.000000, -403.000000)" stroke-width="2" stroke="#FF8C9A">
            <g id="Grouped-Cells" sketch:type="MSLayerGroup" transform="translate(0.000000, 64.000000)">
                <g id="medical92" transform="translate(15.000000, 340.000000)" sketch:type="MSShapeGroup">
                    <g id="Capa_1">
                        <g id="Group">
                            <path d="M47.8278298,9.76480952 L38.8982128,9.76480952 L38.8982128,9.42685714 C38.8982128,4.3945 34.825617,0.306619048 29.8491064,0.306619048 L21.2425532,0.306619048 C16.2660426,0.306619048 12.1812766,4.3945 12.1812766,9.42685714 L12.1812766,9.76480952 L3.26382979,9.76480952 C1.46042553,9.76480952 0,11.2732857 0,13.0973333 L0,43.569 C0,45.3919286 1.46042553,46.881381 3.2627234,46.881381 L47.8289362,46.881381 C49.631234,46.881381 51.078383,45.3908095 51.078383,43.569 L51.078383,13.0973333 C51.078383,11.2732857 49.6290213,9.76480952 47.8278298,9.76480952 L47.8278298,9.76480952 Z M16.6588085,9.4257381 C16.6588085,6.87095238 18.7155745,4.75707143 21.2414468,4.75707143 L29.848,4.75707143 C32.3738723,4.75707143 34.4184681,6.87095238 34.4184681,9.4257381 L34.4184681,9.76369048 L16.6588085,9.76369048 L16.6588085,9.4257381 L16.6588085,9.4257381 Z M25.5452766,41.689 C18.2652766,41.689 12.3417021,35.697619 12.3417021,28.3331667 C12.3417021,20.9687143 18.2652766,14.9773333 25.5452766,14.9773333 C32.826383,14.9773333 38.7499574,20.9687143 38.7499574,28.3331667 C38.7499574,35.697619 32.826383,41.689 25.5452766,41.689 L25.5452766,41.689 Z" id="Shape"></path>
                            <path d="M30.9355745,30.5790952 L27.739234,30.5790952 L27.739234,33.7985952 C27.739234,35.0385 26.7645106,36.0456429 25.5386383,36.0456429 C24.312766,36.0456429 23.3380426,35.039619 23.3380426,33.7985952 L23.3380426,30.5790952 L20.1494468,30.5790952 C18.9224681,30.5790952 17.9245106,29.5741905 17.9245106,28.3331667 C17.9245106,27.0921429 18.9246809,26.086119 20.1516596,26.086119 L23.3391489,26.086119 L23.3391489,22.8688571 C23.3391489,21.6278333 24.312766,20.6218095 25.5397447,20.6218095 C26.7667234,20.6218095 27.7403404,21.6278333 27.7403404,22.8688571 L27.7403404,26.086119 L30.9366809,26.086119 C32.1625532,26.086119 33.1594043,27.0921429 33.1594043,28.3331667 C33.1571915,29.5741905 32.1625532,30.5790952 30.9355745,30.5790952 L30.9355745,30.5790952 Z" id="Path"></path>
                        </g>
                    </g>
                </g>
            </g>
        </g>
    </g>
</svg>