<?xml version="1.0" encoding="UTF-8" standalone="no"?>
<svg width="29px" height="47px" viewBox="0 0 29 47" version="1.1" xmlns="http://www.w3.org/2000/svg" xmlns:xlink="http://www.w3.org/1999/xlink">
    <!-- Generator: Sketch 3.6.1 (26313) - http://www.bohemiancoding.com/sketch -->
    <title>feed</title>
    <desc>Created with Sketch.</desc>
    <defs></defs>
    <g id="Page-1" stroke="none" stroke-width="1" fill="none" fill-rule="evenodd">
        <g id="feed" transform="translate(1.000000, 1.000000)" stroke-width="1.5" stroke="#D49429">
            <g id="Page-1">
                <g id="113">
                    <g id="bottle">
                        <g id="Group-2">
                            <path d="M0,24 C0,24 0,18 3,18 L24,18 C27,18 27,24 27,24 L27,41.0006308 C27,43.2094214 25.2075447,45 23.0015293,45 L3.99847066,45 C1.79017629,45 0,43.2095518 0,41.0006308 L0,24 L0,24 Z" id="Rectangle-116-Copy"></path>
                            <path d="M0,26 C0,26 3.24,24 7.56,24 C11.88,24 16.2,27 20.52,27 C24.84,27 27,26 27,26" id="Path-398"></path>
                            <path d="M3.85884537,14.5646185 C3.93680292,14.2527883 4.45092539,14 4.99477117,14 L22.0052288,14 C22.5546258,14 23.0625545,14.2502179 23.1411546,14.5646185 L24,18 L3,18 L3.85884537,14.5646185 L3.85884537,14.5646185 Z" id="Rectangle-117-Copy-2"></path>
                            <path d="M10,4.24554175 L10,5.00208688 C10,6.10173938 9.22960905,7.46223457 8.27928364,8.03242981 L6.72071636,8.96757019 C5.75939238,9.54436457 5,10.8954305 5,12 L5,14 L22,14 L22,12 C22,10.8877296 21.229609,9.53776543 20.2792836,8.96757019 L18.7207164,8.03242981 C17.7593924,7.45563543 17,6.10550383 17,5.00208688 L17,4.24554175 L17,3.5089165 C17,1.56147182 15.4329966,0 13.5,0 C11.5709366,0 10,1.57099543 10,3.5089165 L10,4.24554175 L10,4.24554175 Z" id="Combined-Shape"></path>
                        </g>
                    </g>
                </g>
            </g>
        </g>
    </g>
</svg>