<?xml version="1.0" encoding="UTF-8" standalone="no"?>
<svg width="38px" height="38px" viewBox="0 0 38 38" version="1.1" xmlns="http://www.w3.org/2000/svg" xmlns:xlink="http://www.w3.org/1999/xlink" xmlns:sketch="http://www.bohemiancoding.com/sketch/ns">
    <!-- Generator: Sketch 3.5.2 (25235) - http://www.bohemiancoding.com/sketch -->
    <title>avatar75</title>
    <desc>Created with Sketch.</desc>
    <defs></defs>
    <g id="Page-1" stroke="none" stroke-width="1" fill="none" fill-rule="evenodd" sketch:type="MSPage">
        <g id="Экран-1.2" sketch:type="MSArtboardGroup" transform="translate(-329.000000, -624.000000)">
            <g id="avatar75" sketch:type="MSLayerGroup" transform="translate(331.000000, 625.000000)">
                <g id="Group" sketch:type="MSShapeGroup">
                    <g id="Group-3">
                        <path d="M29.8404947,5.14556 C26.5391711,1.85304 22.1491979,0.0395733333 17.480254,0.0395733333 C12.8110294,0.0395733333 8.4213369,1.85304 5.11963904,5.14556 C1.81831551,8.43845333 0,12.81644 0,17.4732133 C0,22.1297067 1.81831551,26.5079733 5.11963904,29.8004933 C8.4213369,33.0933867 12.8110294,34.90648 17.480254,34.90648 C22.1495722,34.90648 26.5391711,33.0931067 29.8404947,29.8004933 C33.1421925,26.5076 34.960508,22.1297067 34.960508,17.4732133 C34.960508,12.81644 33.1421925,8.43845333 29.8404947,5.14556 L29.8404947,5.14556 Z M9.29764706,17.0703867 C9.29764706,16.53624 9.33377005,16.0181467 9.40180481,15.526 C10.074385,14.7363067 11.0749733,14.27104 12.1251604,14.27104 L13.906885,14.27104 C15.3260695,14.27104 16.6629011,13.5674 17.480254,12.4324667 C18.2973262,13.5674 19.6341578,14.27104 21.0532487,14.27104 L22.8349733,14.27104 C23.8851604,14.27104 24.8853743,14.7363067 25.5579545,15.5256267 C25.6263636,16.0177733 25.6625802,16.53624 25.6625802,17.0703867 C25.6625802,22.6029067 21.9919786,27.1040933 17.4798797,27.1040933 C12.9681551,27.1040933 9.29764706,22.6029067 9.29764706,17.0703867 L9.29764706,17.0703867 Z M22.9818984,25.65808 C25.1120321,23.6711067 26.4861096,20.5608667 26.4861096,17.07076 C26.4861096,16.9642667 26.4832086,16.8592667 26.4806818,16.7542667 L26.5585428,16.8592667 C26.6941444,17.04192 26.9518717,17.0801867 27.134639,16.94532 C27.3174064,16.81036 27.3557754,16.5534133 27.2205481,16.37076 L26.3725,15.2277067 C25.55,14.1143333 24.2277674,13.4497067 22.8349733,13.4497067 L21.053623,13.4497067 C19.7134225,13.4497067 18.463623,12.6770933 17.8615107,11.47944 C17.8001203,11.3300133 17.6524465,11.2250133 17.480254,11.2250133 C17.3135829,11.2250133 17.1703075,11.3241333 17.1055481,11.466 C16.5060561,12.6713067 15.2518583,13.4497067 13.906885,13.4497067 L12.1251604,13.4497067 C10.7328342,13.4497067 9.41022727,14.1143333 8.58838235,15.2270533 L7.73958556,16.37076 C7.60435829,16.55304 7.6431016,16.81036 7.82586898,16.94532 C7.89933155,16.99964 7.98524064,17.0258667 8.07040107,17.0258667 C8.1965508,17.0258667 8.32082888,16.96828 8.40159091,16.8592667 L8.47945187,16.7542667 C8.47729947,16.8592667 8.47402406,16.9642667 8.47402406,17.0703867 C8.47402406,20.5583467 9.84632353,23.66672 11.9738369,25.6540667 C11.2098262,26.03944 10.4897059,26.50508 9.82508021,27.0391333 C7.78927807,26.1277333 6.43747326,24.0834533 6.43747326,21.8777067 L6.43747326,15.8679733 C6.43747326,9.74661333 11.3881952,4.7642 17.4740775,4.76130667 L17.4798797,4.76130667 C20.4244652,4.76130667 23.1957353,5.90576 25.2831016,7.98457333 C27.372246,10.06488 28.5230348,12.8283867 28.5230348,15.7654933 L28.5230348,21.8777067 C28.5230348,24.1440267 27.2048262,26.1499467 25.1448797,27.0536933 C24.4763235,26.5152533 23.7514305,26.04644 22.9818984,25.65808 L22.9818984,25.65808 Z M16.869812,27.8631211 L16.6925939,33.7900924 C13.2424736,33.7073057 10.479512,32.604391 7.74445852,30.588951 C8.91022055,28.5761243 10.701867,27.4078862 12.809728,26.4249929 C12.809728,26.4249929 15.2532612,27.7749211 16.869812,27.8631211 Z M27.9299222,29.8706964 C27.3339864,28.8669897 27.0038139,28.685982 26.1538941,27.8933954 C27.0981455,27.4099287 27.8123205,26.4510391 28.4252884,25.5706258 C29.1816253,24.4837591 29.7538458,23.2066797 29.7538458,21.8777064 L29.7538458,15.7658662 C29.7538458,12.6089595 28.3987604,9.44965746 26.1538941,7.21395079 C23.9108059,4.98020413 20.6445722,3.93988 17.4798797,3.93988 C10.9338503,3.94314667 5.35036042,9.19202618 5.35036042,15.7658662 L5.35036042,21.8777064 C5.35036042,23.1967864 5.73934243,24.4830125 6.5029788,25.5706258 C7.11781837,26.4462791 7.80889931,27.1540277 8.75062391,27.6407611 C7.89518273,28.4369877 7.66906408,28.8604564 7.07097585,29.8706964 C6.63852932,29.5178031 6.40487799,29.3598801 6.00424965,28.9603201 C2.85818013,25.8226401 1.23683517,21.9105603 1.23683517,17.4732136 C1.23683517,13.0358669 2.85818009,9.1324443 6.00424961,5.99523096 C9.15059987,2.85717763 13.0241183,1.06533363 17.4733296,1.06533363 C21.9221665,1.06533363 25.7563754,2.85717763 28.9024449,5.99523096 C32.0484208,9.1324443 33.7021198,13.0358669 33.7021198,17.4732136 C33.7021198,21.9105603 32.0484198,25.8226401 28.9024439,28.9603201 C28.501722,29.3602534 28.362743,29.5174297 27.9299222,29.8706964 Z" id="Fill-1" fill="#A5A5A5"></path>
                        <circle id="Oval-71" stroke="#F2F2F2" stroke-width="3" cx="17" cy="18" r="17"></circle>
                        <path d="M18.0328115,27.8877768 C19.647397,27.7999501 20.7885755,27.3865931 22.0739365,26.4022064 C24.1824525,27.3862198 25.6092324,28.7735928 26.7764918,30.7835261 C24.0413447,32.7982194 21.4825575,33.7823411 18.0328115,33.8651278 L18.0328115,27.8877768 Z" id="Path" fill="#F5F4F4"></path>
                    </g>
                    <path d="M19.5010829,23.0433467 C19.3434893,22.87964 19.082861,22.8741333 18.9187166,23.0313067 C18.5312834,23.4024 18.0202273,23.6069867 17.4798797,23.6069867 C16.94,23.6069867 16.4293182,23.4024 16.0414171,23.0313067 C15.8776471,22.8741333 15.6170187,22.87964 15.4594251,23.0433467 C15.3019251,23.20668 15.3073529,23.4666133 15.4714973,23.6236933 C16.0132487,24.1425333 16.7264439,24.42804 17.4798797,24.42804 C18.2336898,24.42804 18.9472594,24.1425333 19.4890107,23.6236933 C19.6531551,23.4666133 19.6585829,23.20668 19.5010829,23.0433467 L19.5010829,23.0433467 Z" id="Fill-4" fill="#A5A5A5"></path>
                    <path d="M14.4370321,17.8374 C14.0366845,17.4090933 13.4166979,17.2526667 12.8555749,17.4491333 C12.6365909,17.52604 12.3895321,17.4819867 12.2110695,17.33396 C12.0359759,17.1892 11.7764706,17.21328 11.6313235,17.3879067 C11.4861765,17.5625333 11.5103209,17.82144 11.6854144,17.9661067 C12.080615,18.2931467 12.624893,18.3931067 13.1111497,18.2297733 C13.065762,18.39852 13.0741845,18.5826667 13.1487701,18.7554267 C13.3249866,19.166 13.8016043,19.3563067 14.2132754,19.18056 C14.6248529,19.0048133 14.8156684,18.5293733 14.6395455,18.1188933 C14.591631,18.0077333 14.5214439,17.91328 14.4370321,17.8374 L14.4370321,17.8374 Z" id="Fill-5" fill="#A5A5A5"></path>
                    <path d="M20.7472326,19.18056 C21.1589037,19.3563067 21.6355214,19.1663733 21.811738,18.7554267 C21.8859492,18.5826667 21.8943717,18.39852 21.8494519,18.2297733 C22.335615,18.3931067 22.879893,18.2931467 23.2750936,17.9661067 C23.4501872,17.82144 23.4743316,17.5625333 23.3291845,17.3879067 C23.1840374,17.21328 22.9245321,17.1892 22.7494385,17.3343333 C22.5706952,17.4819867 22.3235428,17.52604 22.1049332,17.4491333 C21.5438102,17.2526667 20.9241979,17.4090933 20.5238503,17.8370267 C20.4390642,17.91328 20.368877,18.0077333 20.3210561,18.1188933 C20.1444652,18.5293733 20.3352807,19.0048133 20.7472326,19.18056 L20.7472326,19.18056 Z" id="Fill-6" fill="#A5A5A5"></path>
                </g>
            </g>
        </g>
    </g>
</svg>