<?xml version="1.0" encoding="UTF-8" standalone="no"?>
<svg width="27px" height="27px" viewBox="0 0 27 27" version="1.1" xmlns="http://www.w3.org/2000/svg" xmlns:xlink="http://www.w3.org/1999/xlink" xmlns:sketch="http://www.bohemiancoding.com/sketch/ns">
    <!-- Generator: Sketch 3.5.2 (25235) - http://www.bohemiancoding.com/sketch -->
    <title>building120 + Oval 51</title>
    <desc>Created with Sketch.</desc>
    <defs></defs>
    <g id="Page-1" stroke="none" stroke-width="1" fill="none" fill-rule="evenodd" sketch:type="MSPage">
        <g id="la" sketch:type="MSArtboardGroup" transform="translate(-8.000000, -630.000000)" fill="#A5A5A5">
            <g id="building120-+-Oval-51" sketch:type="MSLayerGroup" transform="translate(8.000000, 630.000000)">
                <g id="building120" sketch:type="MSShapeGroup">
                    <path d="M26.5677056,10.8925364 L14.2366271,0.281413636 C14.026094,0.0996545455 13.754532,0 13.472594,0 C13.190656,0 12.919094,0.0996545455 12.708561,0.281413636 L0.377036178,10.8925364 C-0.106286136,11.3080909 -0.00341836729,11.7884455 0.0396477484,11.9261455 C0.0823791534,12.0632318 0.270709732,12.5109409 0.884346096,12.5109409 L3.33889155,12.5109409 L3.33889155,25.5813955 C3.33889155,26.2583591 3.83961882,26.8086682 4.45459403,26.8086682 L10.2296932,26.8086682 C10.8445568,26.8086682 11.3453957,26.2583591 11.3453957,25.5813955 L11.3453957,19.7322136 L15.5997924,19.7322136 L15.5997924,25.5813955 C15.5997924,26.2583591 16.1001849,26.8086682 16.7154949,26.8086682 L22.4901477,26.8086682 C23.1055692,26.8086682 23.6058502,26.2583591 23.6058502,25.5813955 L23.6058502,12.5109409 L26.0603957,12.5109409 C26.6744783,12.5109409 26.8623626,12.0632318 26.9054287,11.9261455 C26.9486064,11.7884455 27.0514742,11.3080909 26.5677056,10.8925364 L26.5677056,10.8925364 Z M23.6238496,11.3369511 C23.0088744,11.3369511 22.5819981,11.5890141 22.5819981,12.2654868 L22.5819977,25.8352339 L16.7577589,25.8352339 L16.7577589,19.4867584 C16.7577589,18.8097948 16.1653141,18.6402908 15.5498926,18.6402908 L11.1883075,18.6402908 C10.572886,18.6402908 10.3471689,18.8097948 10.3471689,19.4867584 L10.3471689,25.8352339 L4.58782133,25.8352339 L4.35232552,12.2654868 C4.35232552,11.5890141 4.01703146,11.3369511 3.40172155,11.3369511 L1.78764662,11.0382142 L13.472594,1.15041585 L25.1798162,11.0382142 L23.6238496,11.3369511 Z" id="Fill-1"></path>
                </g>
            </g>
        </g>
    </g>
</svg>