<?xml version="1.0" encoding="UTF-8" standalone="no"?>
<svg width="34px" height="26px" viewBox="0 0 34 26" version="1.1" xmlns="http://www.w3.org/2000/svg" xmlns:xlink="http://www.w3.org/1999/xlink" xmlns:sketch="http://www.bohemiancoding.com/sketch/ns">
    <!-- Generator: Sketch 3.5.2 (25235) - http://www.bohemiancoding.com/sketch -->
    <title>motherhood8 + Oval 42</title>
    <desc>Created with Sketch.</desc>
    <defs></defs>
    <g id="Page-1" stroke="none" stroke-width="1" fill="none" fill-rule="evenodd" sketch:type="MSPage">
        <g id="Экран-1.0(0)" sketch:type="MSArtboardGroup" transform="translate(-172.000000, -631.000000)" fill="#A5A5A5">
            <g id="motherhood8-+-Oval-42" sketch:type="MSLayerGroup" transform="translate(171.000000, 631.000000)">
                <g id="motherhood8" transform="translate(0.954545, 0.414815)" sketch:type="MSShapeGroup">
                    <g id="Group-3">
                        <path d="M30.8964802,9.19108601 C30.3610737,9.02801684 29.8142251,8.98329422 29.271463,9.05793635 C28.4685575,6.47851416 26.8266224,4.18050768 24.6125845,2.55991968 C22.3251539,0.885131941 19.5907476,0 16.704734,0 C13.8186388,0 10.7182985,0.885131958 8.43086795,2.5599197 C6.21715694,4.1805077 4.94050204,6.13690681 4.17241313,8.68915081 C4.16987953,8.69831464 3.0962869,8.89486697 2.56055347,9.05793614 C1.29661487,9.44313027 0.284810878,10.629024 0.0565418514,11.87366 C-0.132088623,12.9031419 0.156169472,13.9461736 0.847678329,14.7355161 C1.5395141,15.5251719 2.55278993,15.9779591 3.62809806,15.9779591 C3.7966232,15.9779591 3.96710985,15.9663673 4.13473597,15.9434185 C4.94050194,18.5225274 6.58276396,20.8205339 8.79647498,22.4412002 C11.0842324,24.1155963 13.8186388,25.0007283 16.704734,25.0007283 C19.5904207,25.0007283 22.3251539,24.1155963 24.6125845,22.4412002 C26.8262955,20.8205339 28.4685575,18.5225274 29.2367282,15.9702834 C29.4419496,15.9663673 29.6124363,15.9779591 29.78137,15.9779591 C30.8562695,15.9779591 31.8695454,15.5251719 32.5613811,14.7355161 C33.25289,13.9461736 33.5412298,12.9031419 33.3525176,11.87366 C33.1245755,10.6293373 32.1604188,9.57628014 30.8964802,9.19108601 Z M29.4817346,14.9488404 C29.3603743,14.9488404 29.2377195,14.9406992 29.1173301,14.9240291 C28.6160311,14.8555652 28.1505739,15.145703 28.0095532,15.6139398 C27.3067153,17.9500062 25.8029802,20.0540865 23.775535,21.5381156 C21.6817462,23.070992 19.1787304,23.8808501 16.5366357,23.8808501 C13.8944601,23.8808501 11.3911207,23.0706819 9.29733185,21.5381156 C7.27021027,20.0540865 5.76647522,17.9500062 5.06331363,15.6139398 C4.93628984,15.1914489 4.54502423,14.914027 4.10189731,14.914027 C4.05383863,14.914027 4.00488998,14.917361 3.95594132,14.9240291 C3.83547099,14.9406992 3.71289709,14.9488404 3.59153679,14.9488404 C2.81499267,14.9488404 2.0827046,14.6217182 1.58302378,14.0511346 C1.07614225,13.4723323 0.873227828,12.7357452 1.01263036,11.9770606 C1.17662858,11.0823787 1.87097133,10.324857 2.78182085,10.0474351 C3.1711447,9.92872828 3.56686019,9.89600831 3.95812581,9.94989547 C4.457483,10.0183593 4.92237386,9.72853167 5.06363725,9.25998477 C5.76647522,6.92360817 7.27021027,4.81952786 9.29733185,3.33549879 C10.4698342,2.4771035 11.7706548,1.84565455 13.1523823,1.4558837 C12.6947731,1.95924403 12.4410491,2.53804638 12.4410491,3.10707927 C12.4410491,3.79737764 12.8177515,4.40401523 13.5019809,4.81534095 C14.2121005,5.24209623 15.2329024,5.45865282 16.5366357,5.45865282 C17.5965966,5.45865282 18.4290473,5.33715472 19.0114959,5.09819038 C19.8676524,4.74656698 19.9954043,4.21591416 19.9954043,3.93120388 C19.9954043,2.89207338 18.4439342,2.04709173 16.5366357,2.04709173 C16.2685912,2.04709173 16.0511945,2.25511942 16.0511945,2.5123046 C16.0511945,2.76910211 16.2685912,2.97751748 16.5366357,2.97751748 C18.1528313,2.97751748 19.0245219,3.65440222 19.0245219,3.93120388 C19.0245219,4.00540533 18.9025143,4.13085774 18.62913,4.2428965 C18.3124605,4.37315611 17.6920667,4.52822707 16.5366357,4.52822707 C15.4342796,4.52822707 14.5632363,4.35493527 14.0180858,4.02727034 C13.6157359,3.78551471 13.4119315,3.47568294 13.4119315,3.10707927 C13.4119315,2.12912426 14.7769113,0.992454136 16.5366357,0.992454136 C19.1787304,0.992454136 21.1387763,1.57420277 23.2325652,3.10707919 C25.2600104,4.59110827 27.3067153,6.92360817 28.0098769,9.25998477 C28.1508166,9.72822153 28.6154648,10.0183593 29.1150647,9.94958532 C29.5063303,9.89600831 29.9020458,9.92872828 30.2916933,10.0474351 C31.2022192,10.324857 31.8968855,11.0823787 32.0609647,11.9770606 C32.199639,12.7357452 31.9970482,13.4723323 31.4901667,14.0511346 C30.9904859,14.6214081 30.2581978,14.9488404 29.4817346,14.9488404 Z" id="Path"></path>
                    </g>
                    <path d="M16.5366357,14.9488404 C14.2702725,14.9488404 12.4264859,16.7157965 12.4264859,18.8877203 C12.4264859,21.0595666 14.2702725,22.8266002 16.5366357,22.8266002 C18.802918,22.8266002 20.6467046,21.0595666 20.6467046,18.8877203 C20.6467046,16.7157965 18.802918,14.9488404 16.5366357,14.9488404 L16.5366357,14.9488404 Z M15.468665,20.8727061 C15.468665,20.3081703 15.9477955,19.8490052 16.5366357,19.8490052 C17.125395,19.8490052 17.6045255,20.3081703 17.6045255,20.8727061 C17.6045255,21.4370093 17.125395,21.8961745 16.5366357,21.8961745 C15.9477955,21.8961745 15.468665,21.4370093 15.468665,20.8727061 L15.468665,20.8727061 Z M18.5469287,21.195874 C18.5652945,21.0908134 18.5754079,20.9826514 18.5754079,20.872396 C18.5754079,19.9553063 17.9126188,19.1845261 17.0220769,18.9749477 L17.0220769,18.3912606 C17.0220769,18.1344631 16.8045992,17.9260478 16.5366357,17.9260478 C16.2682676,17.9260478 16.0511945,18.1344631 16.0511945,18.3912606 L16.0511945,18.9749477 C15.1605717,19.1845261 14.4975399,19.9553063 14.4975399,20.872396 C14.4975399,20.9826514 14.5075723,21.0908134 14.5259382,21.195874 C13.8366926,20.6437439 13.3973683,19.8138816 13.3973683,18.8877203 C13.3973683,17.2288487 14.8056333,15.8792662 16.5366357,15.8792662 C18.2675572,15.8792662 19.6755795,17.2288487 19.6755795,18.8877203 C19.6758222,19.8138816 19.2362552,20.6437439 18.5469287,21.195874 L18.5469287,21.195874 Z" id="Fill-4"></path>
                    <path d="M12.3613559,10.9294012 C12.3505952,10.6726037 12.1242987,10.4727172 11.8569824,10.483262 C11.2912816,10.5050495 10.6778457,10.5917342 10.0254937,11.0766411 C9.81343676,11.2341156 9.77484419,11.5263468 9.93924694,11.7293347 C10.0349598,11.8477314 10.1784886,11.9095272 10.3232309,11.9095272 C10.4271963,11.9095272 10.5318088,11.8777376 10.620321,11.8119875 C11.0358586,11.5030862 11.4025286,11.4319086 11.8958177,11.4128349 C12.1635386,11.4025227 12.3721165,11.1862762 12.3613559,10.9294012 L12.3613559,10.9294012 Z" id="Fill-5"></path>
                    <path d="M11.6174172,12.4677051 C11.2068958,12.4677051 10.8731549,12.7878491 10.8731549,13.180954 L10.8731549,13.6774136 C10.8731549,14.0705185 11.2068958,14.3906625 11.6174172,14.3906625 C12.0279387,14.3906625 12.3616795,14.0705185 12.3616795,13.6774136 L12.3616795,13.180954 C12.3616795,12.7878491 12.0279387,12.4677051 11.6174172,12.4677051 L11.6174172,12.4677051 Z" id="Fill-6"></path>
                    <path d="M23.0476968,11.0766411 C22.3954257,10.5917342 21.7819898,10.5048169 21.216208,10.483262 C20.9472736,10.4729498 20.7225952,10.6729138 20.7118346,10.9294012 C20.701074,11.1862762 20.9096519,11.4025227 21.1773727,11.4128349 C21.6704192,11.4319086 22.0373319,11.5030862 22.4526268,11.8119875 C22.541058,11.8777376 22.6459942,11.9095272 22.7500405,11.9095272 C22.8947828,11.9095272 23.0382307,11.8477314 23.1340244,11.7293347 C23.2980227,11.5263468 23.2594301,11.2341156 23.0476968,11.0766411 L23.0476968,11.0766411 Z" id="Fill-7"></path>
                    <path d="M21.4557733,12.4677051 C21.0452518,12.4677051 20.7111874,12.7878491 20.7111874,13.180954 L20.7111874,13.6774136 C20.7111874,14.0705185 21.0452518,14.3906625 21.4557733,14.3906625 C21.866052,14.3906625 22.2001165,14.0705185 22.2001165,13.6774136 L22.2001165,13.180954 C22.2001165,12.7878491 21.866052,12.4677051 21.4557733,12.4677051 L21.4557733,12.4677051 Z" id="Fill-8"></path>
                </g>
            </g>
        </g>
    </g>
</svg>