<?xml version="1.0" encoding="UTF-8" standalone="no"?>
<svg width="29px" height="29px" viewBox="0 0 29 29" version="1.1" xmlns="http://www.w3.org/2000/svg" xmlns:xlink="http://www.w3.org/1999/xlink" xmlns:sketch="http://www.bohemiancoding.com/sketch/ns">
    <!-- Generator: Sketch 3.5.2 (25235) - http://www.bohemiancoding.com/sketch -->
    <title>Notification</title>
    <desc>Created with Sketch.</desc>
    <defs></defs>
    <g id="Page-1" stroke="none" stroke-width="1" fill="none" fill-rule="evenodd" sketch:type="MSPage">
        <g id="00001" sketch:type="MSArtboardGroup" transform="translate(-15.000000, -561.000000)">
            <g id="Notifications" sketch:type="MSLayerGroup" transform="translate(-1.000000, 509.000000)">
                <g id="Notification" transform="translate(16.000000, 52.000000)" sketch:type="MSShapeGroup">
                    <rect id="Rectangle-1193" fill="#8E8E93" x="0" y="0" width="29" height="29" rx="6"></rect>
                    <path d="M15.6497229,7 L9.00008783,7 C7.34318507,7 6,8.34348897 6,10.0000878 L6,19.9999122 C6,21.6568149 7.34348897,23 9.00008783,23 L18.9999122,23 C20.6568149,23 22,21.656511 22,19.9999122 L22,13.3502771 C21.6773302,13.4290866 21.342968,13.4780739 21,13.4941524 L21,19.9999122 C21,21.1043469 20.1044096,22 18.9999122,22 L9.00008783,22 C7.8956531,22 7,21.1044096 7,19.9999122 L7,10.0000878 C7,8.8956531 7.89559044,8 9.00008783,8 L15.5058476,8 C15.5219261,7.65703196 15.5709134,7.32266982 15.6497229,7 Z M20.75,12 C22.8210678,12 24.5,10.3210678 24.5,8.25 C24.5,6.17893219 22.8210678,4.5 20.75,4.5 C18.6789322,4.5 17,6.17893219 17,8.25 C17,10.3210678 18.6789322,12 20.75,12 Z" id="Rectangle-49" fill="#FFFFFF"></path>
                </g>
            </g>
        </g>
    </g>
</svg>