<?xml version="1.0" encoding="UTF-8" standalone="no"?>
<svg width="47px" height="47px" viewBox="0 0 47 47" version="1.1" xmlns="http://www.w3.org/2000/svg" xmlns:xlink="http://www.w3.org/1999/xlink" xmlns:sketch="http://www.bohemiancoding.com/sketch/ns">
    <!-- Generator: Sketch 3.5.2 (25235) - http://www.bohemiancoding.com/sketch -->
    <title>childhood31</title>
    <desc>Created with Sketch.</desc>
    <defs></defs>
    <g id="Page-1" stroke="none" stroke-width="1" fill="none" fill-rule="evenodd" sketch:type="MSPage">
        <g id="y" sketch:type="MSArtboardGroup" transform="translate(-16.000000, -140.000000)">
            <g id="childhood31" sketch:type="MSLayerGroup" transform="translate(16.000000, 140.000000)">
                <g id="Capa_1" sketch:type="MSShapeGroup">
                    <g id="Group">
                        <path d="M47,8.78375734 C47,3.94036595 43.0596341,0 38.2162427,0 C34.6379883,0 31.4571644,2.15188258 30.1055695,5.41778474 C27.9976517,4.75840509 25.775775,4.4148728 23.5,4.4148728 C21.2241331,4.4148728 19.0023483,4.75840509 16.8943386,5.41778474 C15.5426517,2.15206654 12.3612759,0 8.78375734,0 C3.94036595,0 0,3.94036595 0,8.78375734 C0,11.8095088 1.55109198,14.5971331 4.08716047,16.2025832 C2.60367123,19.1177789 1.81865166,22.3531448 1.81865166,25.7074364 C1.81865166,31.3972877 4.07557143,36.745998 8.17358513,40.7681311 C12.2681037,44.7868611 17.711182,47 23.5,47 C29.288818,47 34.7318963,44.7867691 38.8264149,40.7681311 C42.9244286,36.745998 45.1813483,31.3973796 45.1813483,25.7074364 C45.1813483,22.3531448 44.3963288,19.1177789 42.9127476,16.2024912 C45.449092,14.5971331 47,11.8108885 47,8.78375734 L47,8.78375734 Z" id="Shape" fill="#754D4D"></path>
                        <path d="M6.90927593,11.9993483 C5.77400978,11.3368415 5.05870841,10.116681 5.05870841,8.78375734 C5.05870841,6.72973777 6.72973777,5.05870841 8.78375734,5.05870841 C10.3549922,5.05870841 11.7362955,6.03798239 12.2721507,7.48394521 C10.7995147,8.36259687 9.42345401,9.42005088 8.17358513,10.6468337 C7.72998239,11.0822505 7.3092818,11.5340391 6.90927593,11.9993483 L6.90927593,11.9993483 Z" id="Path" fill="#FFFFFF"></path>
                        <path d="M1.37964775,8.78375734 C1.37964775,4.70110372 4.70110372,1.37964775 8.78375734,1.37964775 C11.7718904,1.37964775 14.4323112,3.16086497 15.5889159,5.87168885 C14.8726947,6.14697456 14.1721096,6.4605225 13.489184,6.81040117 C12.7060959,4.93472407 10.8667495,3.67906067 8.78375734,3.67906067 C5.969,3.67906067 3.67906067,5.969 3.67906067,8.78375734 C3.67906067,10.539865 4.58318982,12.1552485 6.03485519,13.0840274 C5.57175342,13.6992583 5.14562622,14.3362877 4.75564579,14.9916204 C2.65922505,13.6312877 1.37964775,11.3058454 1.37964775,8.78375734 L1.37964775,8.78375734 Z" id="Path" fill="#FFFFFF"></path>
                        <path d="M23.5,45.6203523 C18.0748571,45.6203523 12.9749432,43.5473855 9.13998239,39.7835225 C5.30842466,36.0229706 3.19829941,31.023955 3.19829941,25.7074364 C3.19829941,20.3909178 5.30842466,15.3919941 9.13998239,11.6313503 C12.9749432,7.86748728 18.0748571,5.79452055 23.5,5.79452055 C28.9251429,5.79452055 34.0250568,7.86748728 37.8600176,11.6313503 C41.6915753,15.3919022 43.8017006,20.3909178 43.8017006,25.7074364 C43.8017006,31.023955 41.6915753,36.0228787 37.8600176,39.7835225 C34.0250568,43.5473855 28.9251429,45.6203523 23.5,45.6203523 Z" id="Path" fill="#FFFFFF"></path>
                        <path d="M24.2785812,29.5157241 C24.3391018,29.8348826 24.6195382,30.0763209 24.9563562,30.0763209 C25.3373229,30.0763209 25.64618,29.7674638 25.64618,29.3864971 C25.64618,28.560456 24.7436145,27.9608611 23.500092,27.9608611 C23.1191252,27.9608611 22.8102681,28.2697182 22.8102681,28.6506849 C22.8102681,29.0316517 23.1191252,29.3405088 23.500092,29.3405088 C23.9110431,29.3405088 24.1794305,29.4503288 24.2785812,29.5157241 L24.2785812,29.5157241 Z" id="Shape" fill="#754D4D"></path>
                        <path d="M35.962818,20.5567515 C35.962818,18.1477945 34.0028904,16.1878669 31.5939335,16.1878669 C29.1849765,16.1878669 27.2250489,18.1477945 27.2250489,20.5567515 C27.2250489,21.0173699 27.3001937,21.471274 27.4428493,21.9026438 C26.2030978,21.5370372 24.8774403,21.3385519 23.5,21.3385519 C22.1225597,21.3385519 20.7969022,21.5370372 19.5571507,21.9026438 C19.6998063,21.471274 19.7749511,21.0173699 19.7749511,20.5567515 C19.7749511,18.1477945 17.8150235,16.1878669 15.4060665,16.1878669 C12.9971096,16.1878669 11.037182,18.1477945 11.037182,20.5567515 C11.037182,22.6258552 12.4835127,24.3622798 14.4178708,24.8114932 C12.3227378,26.7788708 11.037182,29.4242074 11.037182,32.3297456 C11.037182,38.3903542 16.6279746,43.3209393 23.5,43.3209393 C30.3720254,43.3209393 35.962818,38.3903542 35.962818,32.3297456 C35.962818,29.4242074 34.6772622,26.7788708 32.5821292,24.8114932 C34.5164873,24.3622798 35.962818,22.6258552 35.962818,20.5567515 L35.962818,20.5567515 Z" id="Shape" fill="#6C4646"></path>
                        <path d="M31.5939335,23.5459883 C31.3432055,23.5459883 31.0771174,23.5033112 30.7840802,23.4169452 C30.5026321,23.237499 30.2125382,23.0680783 29.9141663,22.9094188 C29.7930333,22.8439315 29.67282,22.7808356 29.5542622,22.7223386 C28.9412387,22.1473014 28.6046967,21.3816888 28.6046967,20.5567515 C28.6046967,18.9085323 29.9457143,17.5675147 31.5939335,17.5675147 C33.2421526,17.5675147 34.5831703,18.9085323 34.5831703,20.5567515 C34.5831703,22.2049706 33.2421526,23.5459883 31.5939335,23.5459883 L31.5939335,23.5459883 Z" id="Path" fill="#FFFFFF"></path>
                        <path d="M34.5831703,32.3297456 C34.5831703,37.6296164 29.6112877,41.9412916 23.5,41.9412916 C17.3887123,41.9412916 12.4168297,37.6296164 12.4168297,32.3297456 C12.4168297,29.2069589 14.1434129,26.4276125 16.8118356,24.6708611 C16.8425558,24.6568806 16.8726321,24.6412446 16.9010528,24.6229413 C17.3010587,24.3648552 17.6692407,24.1527573 18.0227984,23.9764384 C19.6393777,23.1760587 21.5090763,22.7181996 23.5,22.7181996 C25.4909237,22.7181996 27.3606223,23.1760587 28.9772016,23.9763464 C29.3308513,24.1526654 29.6990333,24.3647632 30.0989472,24.6228493 C30.1274599,24.6412446 30.1574442,24.6568806 30.1881644,24.6707691 C32.8565871,26.4276125 34.5831703,29.2069589 34.5831703,32.3297456 L34.5831703,32.3297456 Z" id="Path" fill="#FFFFFF"></path>
                        <path d="M30.1223092,33.8473581 C29.7413425,33.8473581 29.4324853,34.1562153 29.4324853,34.537182 C29.4324853,35.982593 28.2565656,37.1585127 26.8111546,37.1585127 C25.3657436,37.1585127 24.1898239,35.982593 24.1898239,34.537182 L24.1898239,33.7143601 C26.6793523,33.4250939 28.6046967,31.5951292 28.6046967,29.3864971 C28.6046967,26.9775401 26.3147573,25.0176125 23.5,25.0176125 C20.6852427,25.0176125 18.3953033,26.9775401 18.3953033,29.3864971 C18.3953033,31.5952211 20.3206477,33.4250939 22.8101761,33.7143601 L22.8101761,34.537182 C22.8101761,35.982593 21.6342564,37.1585127 20.1888454,37.1585127 C18.7434344,37.1585127 17.5675147,35.982593 17.5675147,34.537182 C17.5675147,34.1562153 17.2586575,33.8473581 16.8776908,33.8473581 C16.4967241,33.8473581 16.1878669,34.1562153 16.1878669,34.537182 C16.1878669,36.7433307 17.9826967,38.5381605 20.1888454,38.5381605 C21.5642622,38.5381605 22.7795479,37.8404266 23.5,36.7804892 C24.2204521,37.8404266 25.4357378,38.5381605 26.8111546,38.5381605 C29.0173033,38.5381605 30.8121331,36.7433307 30.8121331,34.537182 C30.8121331,34.1562153 30.5032759,33.8473581 30.1223092,33.8473581 L30.1223092,33.8473581 Z" id="Shape" fill="#774646"></path>
                        <path d="M19.7749511,29.3864971 C19.7749511,27.7382779 21.4459804,26.3972603 23.5,26.3972603 C25.5540196,26.3972603 27.2250489,27.7382779 27.2250489,29.3864971 C27.2250489,31.0347162 25.5540196,32.3757339 23.5,32.3757339 C21.4459804,32.3757339 19.7749511,31.0347162 19.7749511,29.3864971 L19.7749511,29.3864971 Z" id="Path" fill="#FFFFFF"></path>
                        <path d="M15.4060665,23.5459883 C13.7578474,23.5459883 12.4168297,22.2049706 12.4168297,20.5567515 C12.4168297,18.9085323 13.7578474,17.5675147 15.4060665,17.5675147 C17.0542857,17.5675147 18.3953033,18.9085323 18.3953033,20.5567515 C18.3953033,21.3816888 18.0587613,22.1473014 17.4456458,22.7223386 C17.3270881,22.7808356 17.2068748,22.8439315 17.0857417,22.9094188 C16.7873699,23.0679863 16.4972759,23.237499 16.2158278,23.4169452 C15.9228826,23.5033112 15.6567945,23.5459883 15.4060665,23.5459883 L15.4060665,23.5459883 Z" id="Path" fill="#FFFFFF"></path>
                        <path d="M16.3815695,20.5567515 L16.6296301,20.3086908 C16.8990294,20.0392916 16.8990294,19.6024951 16.6296301,19.3331879 C16.3602309,19.0637886 15.9234344,19.0637886 15.6541272,19.3331879 L15.4060665,19.5812485 L15.1580059,19.3331879 C14.8886067,19.0637886 14.4518102,19.0637886 14.1825029,19.3331879 C13.9131037,19.6025871 13.9131037,20.0393836 14.1825029,20.3086908 L14.4305636,20.5567515 L14.1825029,20.8048121 C13.9131037,21.0742114 13.9131037,21.5110078 14.1825029,21.7803151 C14.3171566,21.9149687 14.4937515,21.9823875 14.6702544,21.9823875 C14.8467573,21.9823875 15.0233523,21.9150607 15.1580059,21.7803151 L15.4060665,21.5322544 L15.6541272,21.7803151 C15.7887808,21.9149687 15.9653757,21.9823875 16.1418787,21.9823875 C16.3183816,21.9823875 16.4949765,21.9150607 16.6296301,21.7803151 C16.8990294,21.5109159 16.8990294,21.0741194 16.6296301,20.8048121 L16.3815695,20.5567515 L16.3815695,20.5567515 Z" id="Shape" fill="#563939"></path>
                        <path d="M32.8174971,19.3331879 C32.5480978,19.0637886 32.1113014,19.0637886 31.8419941,19.3331879 L31.5939335,19.5812485 L31.3458728,19.3331879 C31.0764736,19.0637886 30.6396771,19.0637886 30.3703699,19.3331879 C30.1009706,19.6025871 30.1009706,20.0393836 30.3703699,20.3086908 L30.6184305,20.5567515 L30.3703699,20.8048121 C30.1009706,21.0742114 30.1009706,21.5110078 30.3703699,21.7803151 C30.5050235,21.9149687 30.6816184,21.9823875 30.8581213,21.9823875 C31.0346243,21.9823875 31.2112192,21.9150607 31.3458728,21.7803151 L31.5939335,21.5322544 L31.8419941,21.7803151 C31.9766477,21.9149687 32.1532427,21.9823875 32.3297456,21.9823875 C32.5062485,21.9823875 32.6828434,21.9150607 32.8174971,21.7803151 C33.0868963,21.5109159 33.0868963,21.0741194 32.8174971,20.8048121 L32.5694364,20.5567515 L32.8174971,20.3086908 C33.0868963,20.0393836 33.0868963,19.6024951 32.8174971,19.3331879 L32.8174971,19.3331879 Z" id="Shape" fill="#754D4D"></path>
                        <path d="M40.090908,11.9996243 C39.6909022,11.5342231 39.2701096,11.0823425 38.8264149,10.6468337 C37.576362,9.41986693 36.2000254,8.36222896 34.7270215,7.48348532 C35.261681,6.03522309 36.6369139,5.05870841 38.2162427,5.05870841 C40.2702622,5.05870841 41.9412916,6.72973777 41.9412916,8.78375734 C41.9412916,10.1199002 41.22691,11.3374853 40.090908,11.9996243 L40.090908,11.9996243 Z" id="Path" fill="#FFFFFF"></path>
                        <path d="M38.2162427,1.37964775 C42.2988963,1.37964775 45.6203523,4.70110372 45.6203523,8.78375734 C45.6203523,11.3069491 44.3410509,13.6313796 42.2443542,14.9916204 C41.8543738,14.3361957 41.4281546,13.6991663 40.9650528,13.0839354 C42.4177299,12.1559843 43.3209393,10.5440959 43.3209393,8.78375734 C43.3209393,5.969 41.031,3.67906067 38.2162427,3.67906067 C36.1223973,3.67906067 34.290593,4.93141292 33.5095284,6.80984932 C32.8270626,6.46024658 32.1269374,6.14688258 31.4110841,5.87178082 C32.5676888,3.16077299 35.2275577,1.37964775 38.2162427,1.37964775 L38.2162427,1.37964775 Z" id="Path" fill="#FFFFFF"></path>
                    </g>
                </g>
            </g>
        </g>
    </g>
</svg>