<?xml version="1.0" encoding="UTF-8" standalone="no"?>
<svg width="23px" height="22px" viewBox="0 0 23 22" version="1.1" xmlns="http://www.w3.org/2000/svg" xmlns:xlink="http://www.w3.org/1999/xlink" xmlns:sketch="http://www.bohemiancoding.com/sketch/ns">
    <!-- Generator: Sketch 3.5.2 (25235) - http://www.bohemiancoding.com/sketch -->
    <title>Cog</title>
    <desc>Created with Sketch.</desc>
    <defs></defs>
    <g id="Page-1" stroke="none" stroke-width="1" fill="none" fill-rule="evenodd" sketch:type="MSPage">
        <g id="Экран-1.0(0)" sketch:type="MSArtboardGroup" transform="translate(-338.000000, -34.000000)" fill="#0176FE">
            <path d="M356.500731,39.3182729 C355.971311,38.6180825 355.344897,37.9953159 354.641458,37.4699617 C354.878361,36.1966057 354.972244,35.4012491 354.972244,35.4012491 C354.983444,35.3135988 354.928976,35.1937917 354.861666,35.1458048 C354.861666,35.1458048 354.559173,34.8809872 353.564711,34.4588631 C352.570249,34.0367391 352.169626,34.0031018 352.169626,34.0031018 C352.08099,33.988229 351.967446,34.0278116 351.90906,34.1010045 C351.90906,34.1010045 351.406716,34.7154494 350.660907,35.7617274 C350.151246,35.6750401 349.627413,35.6298931 349.093011,35.6298931 C348.558644,35.6298931 348.034824,35.6750628 347.525161,35.7617909 C346.779327,34.7154743 346.276962,34.1010045 346.276962,34.1010045 C346.221692,34.0320615 346.097673,33.9880174 346.016397,34.0031018 C346.016397,34.0031018 345.615774,34.0367391 344.621312,34.4588631 C343.62685,34.8809872 343.324357,35.1458048 343.324357,35.1458048 C343.252087,35.1992325 343.201686,35.3084057 343.213778,35.4012491 C343.213778,35.4012491 343.307688,36.196823 343.544662,37.4704833 C342.711449,38.0928558 341.986267,38.8518855 341.402333,39.7143294 C340.108665,39.5194652 339.301394,39.4526412 339.301394,39.4526412 C339.213407,39.4445077 339.095573,39.5031237 339.049965,39.5720676 C339.049965,39.5720676 338.795865,39.883618 338.408705,40.8922061 C338.021544,41.9007941 338.001909,42.302347 338.001909,42.302347 C337.990138,42.3914479 338.033659,42.5035413 338.108845,42.5593372 C338.108845,42.5593372 338.76662,43.059846 339.878605,43.7926687 C339.834545,44.1593796 339.811874,44.5326617 339.811874,44.9112305 L339.811874,45.0758238 C339.811874,45.6222811 339.859086,46.1577082 339.949655,46.6782466 C338.880237,47.4664701 338.251295,47.9992479 338.251295,47.9992479 C338.183327,48.0557134 338.141454,48.1804818 338.157954,48.2614826 C338.157954,48.2614826 338.198578,48.6614575 338.637994,49.6484009 C339.077409,50.6353443 339.347466,50.9331692 339.347466,50.9331692 C339.402147,51.004496 339.512183,51.052984 339.604801,51.0392731 C339.604801,51.0392731 340.405851,50.930511 341.685291,50.6687815 C342.214712,51.3689719 342.841126,51.9917385 343.544565,52.5170927 C343.307662,53.7904482 343.213779,54.5858045 343.213779,54.5858045 C343.202579,54.6734548 343.257047,54.793262 343.324357,54.8412489 C343.324357,54.8412489 343.62685,55.1060671 344.621312,55.5281912 C345.615774,55.9503152 346.016397,55.9839519 346.016397,55.9839519 C346.105033,55.9988247 346.218577,55.959242 346.276963,55.8860491 C346.276963,55.8860491 346.779307,55.2716045 347.525115,54.2253269 C348.034776,54.3120142 348.558609,54.3571612 349.093011,54.3571612 C349.627379,54.3571612 350.151199,54.3119915 350.660862,54.2252634 C351.406696,55.2715796 351.90906,55.8860491 351.90906,55.8860491 C351.964331,55.9549921 352.088349,55.9990363 352.169626,55.9839519 C352.169626,55.9839519 352.570249,55.9503152 353.564711,55.5281912 C354.559173,55.1060671 354.861665,54.8412489 354.861665,54.8412489 C354.933936,54.7878211 354.984336,54.6786479 354.972244,54.5858045 C354.972244,54.5858045 354.878335,53.790231 354.64136,52.516571 C355.474574,51.8941985 356.199756,51.1351688 356.783689,50.2727248 C358.077357,50.4675889 358.884628,50.5344128 358.884628,50.5344128 C358.972615,50.5425463 359.090449,50.4839303 359.136057,50.4149865 C359.136057,50.4149865 359.390157,50.1034363 359.777318,49.0948482 C360.164479,48.0862602 360.184113,47.6847071 360.184113,47.6847071 C360.195884,47.5956062 360.152362,47.4835127 360.077176,47.4277168 C360.077176,47.4277168 359.419403,46.9272082 358.307418,46.1943857 C358.351477,45.8276748 358.374149,45.4543926 358.374149,45.0758238 L358.374149,44.9112305 C358.374149,44.3647732 358.326937,43.829346 358.236368,43.3088076 C359.305785,42.5205844 359.934727,41.9878067 359.934727,41.9878067 C360.002695,41.9313412 360.044568,41.8065727 360.028068,41.7255719 C360.028068,41.7255719 359.987444,41.3255968 359.548029,40.3386534 C359.108613,39.35171 358.838556,39.0538853 358.838556,39.0538853 C358.783875,38.9825586 358.673839,38.9340706 358.581221,38.9477815 C358.581221,38.9477815 357.780171,39.0565436 356.500731,39.3182729 Z M349.093011,40.0887665 C346.408052,40.0887665 344.231463,42.2658172 344.231463,44.9504194 L344.231463,45.0366349 C344.231463,47.7216517 346.413516,49.8982878 349.093011,49.8982878 C351.77797,49.8982878 353.954559,47.7212371 353.954559,45.0366349 L353.954559,44.9504194 C353.954559,42.2654026 351.772507,40.0887665 349.093011,40.0887665 Z" id="Cog" sketch:type="MSShapeGroup"></path>
        </g>
    </g>
</svg>