<?xml version="1.0" encoding="UTF-8" standalone="no"?>
<svg width="29px" height="29px" viewBox="0 0 29 29" version="1.1" xmlns="http://www.w3.org/2000/svg" xmlns:xlink="http://www.w3.org/1999/xlink" xmlns:sketch="http://www.bohemiancoding.com/sketch/ns">
    <!-- Generator: Sketch 3.5.2 (25235) - http://www.bohemiancoding.com/sketch -->
    <title>Capa_1</title>
    <desc>Created with Sketch.</desc>
    <defs></defs>
    <g id="Page-1" stroke="none" stroke-width="1" fill="none" fill-rule="evenodd" sketch:type="MSPage">
        <g id="000" sketch:type="MSArtboardGroup" transform="translate(-15.000000, -517.000000)">
            <g id="sound" sketch:type="MSLayerGroup" transform="translate(15.000000, 517.000000)">
                <g id="Capa_1" sketch:type="MSShapeGroup">
                    <rect id="Rectangle-1185" fill="#FF2D55" x="0" y="0" width="29" height="29" rx="6"></rect>
                    <path d="M21.9696281,20.5537109 C21.7389137,20.5537109 21.5082714,20.4648522 21.3321524,20.2872441 C20.9800947,19.9318094 20.9800947,19.3556296 21.3321524,19.0002313 C23.7926256,16.5163747 23.7926256,12.4748887 21.3321524,9.99103212 C20.9800947,9.63559743 20.9800947,9.05938116 21.3321524,8.70401927 C21.6842101,8.34865739 22.2550823,8.34862099 22.6070678,8.70401927 C24.1395267,10.2509465 24.9834843,12.3077645 24.9834843,14.4955225 C24.9834843,16.6833169 24.1395267,18.7402077 22.6070678,20.2872077 C22.431057,20.4648158 22.2003426,20.5537109 21.9696281,20.5537109 L21.9696281,20.5537109 Z M18.7672121,18.837621 C18.5364976,18.837621 18.3058192,18.7488351 18.1297363,18.5711178 C17.7776426,18.2156831 17.7776426,17.6395396 18.1297363,17.2841413 C19.6528916,15.7465696 19.6528916,13.2446574 18.1297363,11.7070493 C17.7776426,11.3516146 17.7776426,10.7753983 18.1297363,10.4200364 C18.4818301,10.0646745 19.0525941,10.0646745 19.4046518,10.4200364 C21.6307685,12.667349 21.6307685,16.3239507 19.4046518,18.5711906 C19.228641,18.7488351 18.9979626,18.837621 18.7672121,18.837621 L18.7672121,18.837621 Z M14.6727657,6.27968094 C15.2909367,5.79301499 15.7967005,5.95799143 15.7967005,6.64621842 L15.7967005,22.3447901 C15.7967005,23.0330535 15.2909367,23.1979936 14.6727657,22.7113276 L8.860783,18.135743 L5.00753662,18.135743 L5.00753662,10.8552655 L8.860783,10.8552655 L14.6727657,6.27968094 L14.6727657,6.27968094 Z" id="Shape" stroke="#FFFFFF"></path>
                </g>
            </g>
        </g>
    </g>
</svg>