<?xml version="1.0" encoding="UTF-8" standalone="no"?>
<svg width="277px" height="328px" viewBox="0 0 277 328" version="1.1" xmlns="http://www.w3.org/2000/svg" xmlns:xlink="http://www.w3.org/1999/xlink" xmlns:sketch="http://www.bohemiancoding.com/sketch/ns">
    <!-- Generator: Sketch 3.5.1 (25234) - http://www.bohemiancoding.com/sketch -->
    <title>Capa_1 + baby63 + Path</title>
    <desc>Created with Sketch.</desc>
    <defs>
        <linearGradient x1="58.1398249%" y1="-20.255798%" x2="58.1398249%" y2="179.055193%" id="linearGradient-1">
            <stop stop-color="#00A2FF" offset="0%"></stop>
            <stop stop-color="#005C98" offset="100%"></stop>
        </linearGradient>
        <filter x="-50%" y="-50%" width="200%" height="200%" filterUnits="objectBoundingBox" id="filter-2">
            <feOffset dx="0" dy="2" in="SourceAlpha" result="shadowOffsetOuter1"></feOffset>
            <feGaussianBlur stdDeviation="2" in="shadowOffsetOuter1" result="shadowBlurOuter1"></feGaussianBlur>
            <feColorMatrix values="0 0 0 0 0   0 0 0 0 0.196349764   0 0 0 0 0.315396471  0 0 0 0.245439878 0" in="shadowBlurOuter1" type="matrix" result="shadowMatrixOuter1"></feColorMatrix>
            <feMerge>
                <feMergeNode in="shadowMatrixOuter1"></feMergeNode>
                <feMergeNode in="SourceGraphic"></feMergeNode>
            </feMerge>
        </filter>
    </defs>
    <g id="Page-1" stroke="none" stroke-width="1" fill="none" fill-rule="evenodd" sketch:type="MSPage">
        <g id="Экран-0.0" sketch:type="MSArtboardGroup" transform="translate(-49.000000, -171.000000)">
            <g id="Capa_1-+-baby63-+-Path" sketch:type="MSLayerGroup" transform="translate(53.000000, 173.000000)">
                <g id="Capa_1" sketch:type="MSShapeGroup">
                    <path d="M258.483227,246.751604 L259.193539,302.417707 L214.417173,313.093472 L23.4259989,308.614989 L1.82556818,289.636149 L6.09812216,250.520148 L45.4723775,244.170738 L171.51272,235.630126 L258.483227,246.751604 Z" id="Path-381" fill="#FFFFFF"></path>
                    <path d="M40.6988594,255.077895 L257.975203,255.077895 C258.635094,255.077895 259.282375,254.985263 259.900234,254.833684 C259.950672,254.833684 259.9885,254.842105 260.038937,254.842105 C264.679187,254.842105 268.445187,251.069474 268.445187,246.421053 L268.445187,8.42105263 C268.445187,3.77263158 264.679187,0 260.038937,0 L257.987812,0 L54.1446562,0 L40.7114687,0 C18.3382344,0 0.138703125,18.2357895 0.138703125,40.6442105 C0.138703125,40.9431579 0.197546875,41.2294737 0.22696875,41.52 C0.197546875,62.2189474 -0.05884375,252.416842 0.197546875,277.423158 C0.180734375,277.911579 0.121890625,278.387368 0.121890625,278.884211 C0.121890625,300.429474 16.9638125,318.071579 38.1475625,319.402105 C38.5720781,319.469474 38.9881875,319.528421 39.4295156,319.528421 L260.038937,319.528421 C264.679187,319.528421 268.445187,315.755789 268.445187,311.107368 L268.445187,279.410526 C268.445187,274.762105 264.679187,270.989474 260.038937,270.989474 C255.398687,270.989474 251.632687,274.762105 251.632687,279.410526 L251.632687,302.686316 L40.6988594,302.686316 C27.9255625,302.686316 17.4976094,292.526316 16.9848281,279.856842 C16.9974375,279.629474 17.0394687,279.418947 17.0352656,279.187368 C17.0268594,278.816842 17.01425,278.24 17.0058437,277.477895 C17.7413906,265.006316 28.0726719,255.077895 40.6988594,255.077895 L40.6988594,255.077895 Z" id="Shape" fill="url(#linearGradient-1)" filter="url(#filter-2)"></path>
                </g>
                <g id="baby63" transform="translate(19.005435, 35.068493)" sketch:type="MSShapeGroup">
                    <g id="Group-3">
                        <path d="M30.5131745,72.4680412 C31.3504552,72.4680412 32.240066,72.5587695 33.338997,72.7115751 L38.2056914,73.4374016 L39.6376317,68.7195296 C46.5880134,45.8655467 63.6285795,27.7007846 85.0743841,18.3748697 C80.298078,29.0044071 86.7822465,42.117035 97.6193235,47.2503471 C111.125233,53.610879 132.961134,54.4465344 142.180737,40.5698786 C146.324325,34.323951 142.642193,26.4305883 137.628023,22.142482 C130.582496,16.1544138 120.382894,15.3139831 112.019601,18.6327291 C105.273782,21.3211521 108.209022,32.4186566 115.069015,29.6968074 C120.026098,27.7198853 124.545511,27.5670797 129.302788,30.1790999 C135.844044,33.7986819 129.821331,37.9053315 125.249588,39.2280547 C116.73882,41.6872694 104.174851,39.6769211 97.5241779,33.6888529 C89.1228268,26.1154268 99.9408746,17.5153384 106.629606,15.1659528 C113.893968,12.6112346 121.886193,12.0477641 129.559681,12.3294994 C160.634214,16.7704112 187.208363,38.6884601 196.332821,68.7195296 L197.760004,73.4374016 L202.612426,72.7115751 C203.725629,72.5587695 204.619997,72.4680412 205.457278,72.4680412 C215.97086,72.4680412 224.557745,81.0824552 224.557745,91.6594657 C224.557745,102.217376 215.97086,110.836565 205.457278,110.836565 C204.619997,110.836565 203.725629,110.760162 202.631455,110.593031 L197.760004,109.867204 L196.332821,114.585076 C189.044672,138.537349 170.667311,157.299008 147.770537,166.199932 C147.770537,166.013701 147.789566,165.841794 147.789566,165.674663 C147.789566,159.987431 146.191121,154.691763 143.441415,150.155348 C146.191121,147.170864 147.789566,143.665886 147.789566,139.840972 C147.789566,128.834196 134.707055,120.219782 117.985226,120.219782 C101.277669,120.219782 88.1761287,128.834196 88.1761287,139.840972 C88.1761287,143.665886 89.7745737,147.170864 92.5433089,150.155348 C89.7936028,154.691763 88.1761287,159.987431 88.1761287,165.674663 C88.1761287,165.841794 88.1951578,166.013701 88.1951578,166.199932 C65.3174128,157.299008 46.9210228,138.537349 39.6566608,114.585076 L38.2056914,109.867204 L33.338997,110.593031 C32.240066,110.760162 31.3504552,110.836565 30.5131745,110.836565 C19.975806,110.836565 11.4079502,102.217376 11.4079502,91.6594657 C11.4079502,81.0824552 19.975806,72.4680412 30.5131745,72.4680412 L30.5131745,72.4680412 Z" id="Path" fill="#FFD4D4"></path>
                        <path d="M124.875402,183.69508 C122.813226,184.399175 120.629746,184.87563 118.346058,184.87563 C116.035999,184.87563 113.873615,184.399175 111.81144,183.69508 C105.202984,181.418682 100.092374,175.897094 98.5048682,168.993785 C98.1778735,167.500892 97.951087,165.970941 97.951087,164.398638 C97.951087,160.676993 99.0006342,157.246514 100.730541,154.244846 C103.509996,149.427353 108.124839,145.832762 113.667925,144.509275 C115.171046,144.15458 116.716359,143.926941 118.346058,143.926941 C119.949386,143.926941 121.515796,144.15458 123.024191,144.509275 C128.540907,145.832762 133.15575,149.427353 135.940478,154.244846 C137.670385,157.246514 138.741029,160.676993 138.741029,164.398638 C138.741029,165.970941 138.514242,167.500892 138.166151,168.993785 C136.578645,175.897094 131.489132,181.418682 124.875402,183.69508 L124.875402,183.69508 Z" id="Path" fill="#FFFFFF"></path>
                        <path d="M117.977341,128.584475 C132.209298,128.584475 141.63399,134.903534 141.63399,139.101897 C141.63399,139.821089 140.317759,143.247882 139.772731,144.040838 C133.409993,139.313838 126.48957,136.358998 117.977341,136.358998 C109.434492,136.358998 102.939167,139.313838 96.5764288,144.040838 C96.0497728,143.247882 94.2961957,139.821089 94.2961957,139.101897 C94.2961957,134.903534 103.745383,128.584475 117.977341,128.584475 Z" id="Path" fill="#FFFFFF"></path>
                    </g>
                    <path d="M95.1237391,104.194152 C104.938002,104.194152 104.938002,88.913595 95.1237391,88.913595 C85.2952049,88.913595 85.2952049,104.194152 95.1237391,104.194152 L95.1237391,104.194152 Z" id="Fill-4" fill="#4D4D4D"></path>
                    <path d="M143.231717,102.297598 C153.04598,102.297598 153.04598,87.0218163 143.231717,87.0218163 C133.422212,87.0218163 133.422212,102.297598 143.231717,102.297598 L143.231717,102.297598 Z" id="Fill-5" fill="#4D4D4D"></path>
                </g>
                <path d="M206.021962,55.1469128 L204.226047,0 L247.667511,0 L247.667512,55.1469128 L226.578536,26.4620574 L206.021962,55.1469128 Z" id="Path" fill="#FFFFFF" sketch:type="MSShapeGroup"></path>
            </g>
        </g>
    </g>
</svg>