<?xml version="1.0" encoding="UTF-8" standalone="no"?>
<svg width="39px" height="39px" viewBox="0 0 39 39" version="1.1" xmlns="http://www.w3.org/2000/svg" xmlns:xlink="http://www.w3.org/1999/xlink" xmlns:sketch="http://www.bohemiancoding.com/sketch/ns">
    <!-- Generator: Sketch 3.5.2 (25235) - http://www.bohemiancoding.com/sketch -->
    <title>Group 4</title>
    <desc>Created with Sketch.</desc>
    <defs>
        <path id="path-1" d="M0.0339130435,0.251271429 L39,0.251271429 L39,38.6941286 L0.0339130435,38.6941286 L0.0339130435,0.251271429 Z"></path>
    </defs>
    <g id="Page-1" stroke="none" stroke-width="1" fill="none" fill-rule="evenodd" sketch:type="MSPage">
        <g id="Экран-1.2" sketch:type="MSArtboardGroup" transform="translate(-16.000000, -209.000000)">
            <g id="clock104" sketch:type="MSLayerGroup" transform="translate(16.000000, 139.000000)">
                <g id="Group-3-+-Fill-4" transform="translate(0.000000, 70.000000)">
                    <g id="Group-3">
                        <g id="Group-4">
                            <mask id="mask-2" sketch:name="Clip 2" fill="white">
                                <use xlink:href="#path-1"></use>
                            </mask>
                            <g id="Clip-2"></g>
                            <path d="M26.8964348,1.77672857 C24.4965217,0.767185714 21.9796087,0.251271429 19.351913,0.251271429 C16.7225217,0.251271429 14.2253913,0.762728571 11.8277391,1.77672857 C7.06295652,3.79247143 3.57443478,7.20497143 1.52552174,11.9100429 C0.501347826,14.2667571 0,16.7349 0,19.3267286 C0,21.9168857 0.501347826,24.4067571 1.52552174,26.7634714 C3.57443478,31.4685429 7.06295652,34.9033286 11.8277391,36.9185143 C14.2253913,37.9325143 16.7225217,38.4417429 19.351913,38.4417429 C21.9796087,38.4417429 24.4965217,37.9280571 26.8964348,36.9185143 C31.7007826,34.8988714 35.1734783,31.4601857 37.2184348,26.7634714 C38.2471304,24.4000714 38.766,21.9168857 38.766,19.3267286 C38.766,16.7349 38.2493913,14.2734429 37.2184348,11.9100429 C35.1757391,7.21332857 31.7030435,3.79637143 26.8964348,1.77672857 Z M34.125,27.7668857 C32.604,30.3392143 30.5194783,32.3805857 27.8923478,33.8887714 C25.2844348,35.3886 22.4255652,36.1457571 19.351913,36.1457571 C17.0424348,36.1457571 14.8369565,35.7061714 12.7394348,34.8075 C10.6396522,33.9082714 8.82926087,32.7288 7.31278261,31.2356571 C5.798,29.7408429 4.59013043,27.9390429 3.68917391,25.8648 C2.78878261,23.8017 2.35356522,21.6032143 2.35356522,19.3267286 C2.35356522,16.2975429 3.10869565,13.4923286 4.62121739,10.9283571 C6.13995652,8.3538 8.22447826,6.3102 10.8318261,4.80647143 C13.436913,3.30274286 16.2788261,2.54948571 19.351913,2.54948571 C22.4255652,2.54948571 25.2821739,3.3072 27.8923478,4.80647143 C30.5172174,6.31465714 32.5972174,8.35825714 34.125,10.9283571 C35.6505217,13.4967857 36.4124348,16.2975429 36.4124348,19.3267286 C36.4124348,22.3564714 35.6550435,25.1789571 34.125,27.7668857 L34.125,27.7668857 Z" id="Fill-1" fill="#858585" sketch:type="MSShapeGroup" mask="url(#mask-2)"></path>
                            <path d="M21.3931304,19.9941714 L21.3931304,9.17111429 C21.3931304,8.5226 20.8211304,8 20.1654783,8 C19.5493913,8 19,8.5226 19,9.17111429 L19,20.1613143 C19,20.1813714 19.0418261,20.2660571 19.0418261,20.3267857 C19,20.7034143 19.1056957,21.0170857 19.3594783,21.2694714 L25.6961304,27.5156 C26.1200435,27.9334571 26.9062609,27.9334571 27.327913,27.5156 C27.8156957,27.0342286 27.7851739,26.3378 27.327913,25.8854 L21.3931304,19.9941714 Z" id="Fill-4" fill="#858585" sketch:type="MSShapeGroup" mask="url(#mask-2)"></path>
                        </g>
                    </g>
                </g>
            </g>
        </g>
    </g>
</svg>