<?xml version="1.0" encoding="UTF-8" standalone="no"?>
<svg width="53px" height="42px" viewBox="0 0 53 42" version="1.1" xmlns="http://www.w3.org/2000/svg" xmlns:xlink="http://www.w3.org/1999/xlink" xmlns:sketch="http://www.bohemiancoding.com/sketch/ns">
    <!-- Generator: Sketch 3.5.2 (25235) - http://www.bohemiancoding.com/sketch -->
    <title>baby17</title>
    <desc>Created with Sketch.</desc>
    <defs></defs>
    <g id="Page-1" stroke="none" stroke-width="1" fill="none" fill-rule="evenodd" sketch:type="MSPage">
        <g id="u" sketch:type="MSArtboardGroup" transform="translate(-15.000000, -339.000000)" fill="#417A00">
            <g id="baby17" sketch:type="MSLayerGroup" transform="translate(15.000000, 339.000000)">
                <g id="Capa_1" sketch:type="MSShapeGroup">
                    <path d="M51.3923679,25.2631579 L29.8605734,25.2631579 L43.3014149,11.6222105 C44.251681,10.6576842 44.251681,9.08842105 43.3014149,8.12389474 L43.3014149,8.12389474 C42.8411135,7.65663158 42.2289687,7.39936842 41.5779295,7.39936842 C40.9268904,7.39936842 40.3147456,7.65663158 39.8544442,8.12389474 L26.4481409,21.7297895 L26.4481409,0.789473684 C26.4481409,0.353473684 26.0998552,0 25.6702544,0 C25.6638239,0 25.6576008,0.000842105263 25.6511703,0.000947368421 C25.4516164,-0.00863157895 25.2485362,0.0592631579 25.0895362,0.206842105 C24.7319159,0.538631579 23.3714442,1.68947368 20.8787847,2.56789474 C18.5001115,3.40610526 15.9554892,3.70073684 13.3150313,3.44473684 C13.3129569,3.44463158 13.3108826,3.44431579 13.3088082,3.44421053 C13.2964658,3.44305263 13.2841233,3.44221053 13.2717808,3.44105263 C13.2655577,3.44042105 13.2594384,3.44063158 13.2531115,3.44010526 C13.2365166,3.43884211 13.2200254,3.43789474 13.2034305,3.43768421 C13.1928513,3.43757895 13.1823757,3.43789474 13.1719002,3.43821053 C13.1573796,3.43863158 13.1429628,3.43926316 13.1286497,3.44052632 C13.1159961,3.44157895 13.1036536,3.44326316 13.0912074,3.44494737 C13.0792798,3.44663158 13.067456,3.44831579 13.0556321,3.45052632 C13.0415264,3.45315789 13.0275245,3.45631579 13.0136262,3.45968421 C13.0035656,3.46210526 12.9936086,3.46463158 12.9837554,3.46747368 C12.9691311,3.47168421 12.9547143,3.47642105 12.9404012,3.48147368 C12.9311703,3.48473684 12.9220431,3.48810526 12.9129159,3.49168421 C12.8989139,3.49726316 12.8852231,3.50326316 12.871636,3.50957895 C12.8621977,3.514 12.852863,3.51842105 12.8436321,3.52326316 C12.8311859,3.52968421 12.8190509,3.53652632 12.8069159,3.54357895 C12.7968552,3.54947368 12.787002,3.55547368 12.7772524,3.56178947 C12.7666732,3.56873684 12.7563014,3.57589474 12.7459295,3.58326316 C12.7353503,3.59084211 12.7249785,3.59863158 12.7148141,3.60684211 C12.7058943,3.614 12.6972857,3.62126316 12.6886771,3.62884211 C12.6779941,3.63810526 12.6676223,3.64757895 12.6574579,3.65747368 C12.6497828,3.66494737 12.6423151,3.67273684 12.6348474,3.68052632 C12.6249941,3.69094737 12.6152446,3.70168421 12.60591,3.71273684 C12.5986497,3.72126316 12.5918043,3.73010526 12.5848552,3.73894737 C12.576454,3.74978947 12.5682603,3.76084211 12.5603777,3.77210526 C12.5531174,3.78252632 12.5463757,3.79315789 12.5395303,3.804 C12.5329961,3.81442105 12.5265656,3.82484211 12.5205499,3.83568421 C12.5132896,3.84852632 12.5066517,3.86168421 12.5001174,3.87505263 C12.4954501,3.88463158 12.4906791,3.89421053 12.4864266,3.904 C12.4798924,3.91894737 12.4739804,3.93410526 12.4682759,3.94957895 C12.4659941,3.95589474 12.4629863,3.96178947 12.4608082,3.96821053 C12.1392818,4.91094737 10.2131311,9.75715789 3.85167906,12.5918947 C3.5475773,12.7273684 3.3726047,13.0364211 3.38816243,13.3541053 C3.38598434,13.3992632 3.38722896,13.4449474 3.39303718,13.4909474 C3.39645988,13.5643158 3.41015068,13.6366316 3.43307241,13.706 C3.77544618,15.4222105 3.74723483,17.4755789 3.35061644,19.3688421 C2.8460274,21.7775789 1.7661135,23.8761053 0.22755773,25.4375789 C0.0819373777,25.5857895 0,25.7866316 0,25.996 L0,26.8947368 L0,28.5789474 C0,29.4786316 0.721152642,30.2105263 1.60763209,30.2105263 L1.80853425,30.2105263 L3.60379256,38.7133684 C4.00590802,40.6177895 5.69060274,42 7.60970059,42 L45.3902994,42 C47.3093973,42 48.994092,40.6177895 49.3962074,38.7132632 L51.1914658,30.2105263 L51.3923679,30.2105263 C52.2788474,30.2105263 53,29.4786316 53,28.5789474 L53,26.8947368 C53,25.9950526 52.2788474,25.2631579 51.3923679,25.2631579 L51.3923679,25.2631579 Z M40.9544795,9.24042105 C41.1209472,9.07147368 41.3422818,8.97842105 41.5778258,8.97842105 C41.8133699,8.97842105 42.0347045,9.07147368 42.2012759,9.24052632 C42.544998,9.58936842 42.544998,10.1570526 42.2012759,10.5058947 L26.9465068,25.9876842 C26.7800391,26.1566316 26.5586008,26.2497895 26.3231605,26.2497895 C26.0877202,26.2497895 25.8662818,26.1567368 25.6997104,25.9876842 C25.3559883,25.6388421 25.3559883,25.0711579 25.6997104,24.7223158 L40.9544795,9.24042105 L40.9544795,9.24042105 Z M24.8923679,2.33652632 L24.8923679,23.1063158 L14.6524775,5.10621053 C14.8076399,5.10978947 14.9618689,5.11189474 15.1148532,5.11189474 C19.4760998,5.11178947 22.8836575,3.67084211 24.8923679,2.33652632 L24.8923679,2.33652632 Z M13.3229139,5.92684211 L23.5450685,23.8957895 L5.70201174,13.4406316 C9.56862622,11.3975789 12.0535068,8.47126316 13.3229139,5.92684211 L13.3229139,5.92684211 Z M5.17844227,14.9570526 L22.767182,25.2631579 L2.43177691,25.2631579 C4.71948924,22.1825263 5.45827397,18.2327368 5.17844227,14.9570526 L5.17844227,14.9570526 Z M47.8749726,38.3824211 C47.6255303,39.5636842 46.5805695,40.4210526 45.3902994,40.4210526 L7.60970059,40.4210526 C6.41932681,40.4210526 5.37446967,39.5636842 5.1250274,38.3825263 L3.39957143,30.2105263 L49.6003249,30.2105263 L47.8749726,38.3824211 L47.8749726,38.3824211 Z M51.444227,28.5789474 C51.444227,28.608 51.4209941,28.6315789 51.3923679,28.6315789 L50.57009,28.6315789 L50.5674971,28.6315789 L2.4345773,28.6315789 L2.42856164,28.6315789 L1.60763209,28.6315789 C1.57900587,28.6315789 1.55577299,28.608 1.55577299,28.5789474 L1.55577299,26.8947368 C1.55577299,26.8656842 1.57900587,26.8421053 1.60763209,26.8421053 L24.3786517,26.8421053 C24.4461722,26.9329474 24.5180489,27.0214737 24.5995714,27.1042105 C25.0598728,27.5713684 25.6720176,27.8287368 26.3230568,27.8287368 C26.9740959,27.8287368 27.5862407,27.5713684 28.0465421,27.1042105 L28.3048004,26.8421053 L51.3923679,26.8421053 C51.4209941,26.8421053 51.444227,26.8656842 51.444227,26.8947368 L51.444227,28.5789474 L51.444227,28.5789474 Z" id="Shape"></path>
                </g>
            </g>
        </g>
    </g>
</svg>